<?xml version="1.0" encoding="UTF-8" standalone="no"?>
<!DOCTYPE svg PUBLIC "-//W3C//DTD SVG 1.1//EN" "http://www.w3.org/Graphics/SVG/1.1/DTD/svg11.dtd">
<svg width="100%" height="100%" viewBox="0 0 1772 945" version="1.1" xmlns="http://www.w3.org/2000/svg" xmlns:xlink="http://www.w3.org/1999/xlink" xml:space="preserve" xmlns:serif="http://www.serif.com/" style="fill-rule:evenodd;clip-rule:evenodd;stroke-linejoin:round;stroke-miterlimit:2;">
    <g transform="matrix(0.614126,0,0,0.614126,250.405,-156.067)">
        <g transform="matrix(1.80767,-0.239869,0.305053,2.2989,-1454.33,-3365.91)">
            <g transform="matrix(416.667,0,0,416.667,258.15,2061.43)">
                <path d="M0.343,-0L0.032,-0L0.155,-0.708L0.27,-0.708L0.166,-0.106L0.361,-0.106L0.343,-0Z" style="fill:white;fill-rule:nonzero;"/>
            </g>
            <g transform="matrix(416.667,0,0,416.667,415.65,2061.43)">
                <path d="M0.42,-0.354C0.42,-0.341 0.419,-0.325 0.418,-0.306C0.417,-0.287 0.413,-0.261 0.407,-0.227L0.146,-0.227C0.145,-0.219 0.144,-0.211 0.143,-0.203C0.142,-0.195 0.142,-0.187 0.142,-0.18C0.142,-0.151 0.148,-0.127 0.159,-0.109C0.17,-0.09 0.188,-0.081 0.212,-0.081C0.233,-0.081 0.25,-0.088 0.264,-0.101C0.278,-0.114 0.29,-0.129 0.3,-0.146L0.376,-0.097C0.357,-0.064 0.334,-0.037 0.305,-0.016C0.276,0.006 0.241,0.017 0.2,0.017C0.148,0.017 0.108,0 0.079,-0.034C0.05,-0.067 0.036,-0.115 0.036,-0.177C0.036,-0.222 0.042,-0.265 0.053,-0.307C0.064,-0.348 0.08,-0.385 0.101,-0.418C0.122,-0.45 0.147,-0.476 0.176,-0.496C0.205,-0.515 0.236,-0.525 0.271,-0.525C0.298,-0.525 0.321,-0.521 0.34,-0.513C0.359,-0.504 0.374,-0.492 0.386,-0.477C0.398,-0.462 0.407,-0.444 0.412,-0.423C0.417,-0.401 0.42,-0.379 0.42,-0.354ZM0.322,-0.354C0.322,-0.379 0.318,-0.399 0.309,-0.414C0.3,-0.429 0.285,-0.436 0.265,-0.436C0.25,-0.436 0.237,-0.432 0.226,-0.423C0.214,-0.414 0.204,-0.403 0.195,-0.39C0.186,-0.377 0.178,-0.362 0.173,-0.347C0.167,-0.332 0.163,-0.318 0.161,-0.305L0.317,-0.305C0.319,-0.314 0.32,-0.323 0.321,-0.331C0.322,-0.339 0.322,-0.347 0.322,-0.354Z" style="fill:white;fill-rule:nonzero;"/>
            </g>
            <g transform="matrix(416.667,0,0,416.667,601.066,2061.43)">
                <path d="M0.437,-0.333C0.437,-0.29 0.432,-0.247 0.421,-0.205C0.409,-0.163 0.394,-0.126 0.373,-0.093C0.352,-0.059 0.327,-0.033 0.298,-0.013C0.268,0.007 0.235,0.017 0.198,0.017C0.147,0.017 0.107,-0.001 0.079,-0.036C0.05,-0.071 0.036,-0.118 0.036,-0.176C0.036,-0.22 0.042,-0.263 0.053,-0.305C0.064,-0.347 0.08,-0.384 0.101,-0.417C0.122,-0.45 0.147,-0.476 0.176,-0.496C0.205,-0.515 0.239,-0.525 0.276,-0.525C0.327,-0.525 0.367,-0.508 0.395,-0.473C0.423,-0.438 0.437,-0.392 0.437,-0.333ZM0.33,-0.327C0.33,-0.358 0.325,-0.384 0.315,-0.403C0.305,-0.422 0.289,-0.432 0.266,-0.432C0.247,-0.432 0.229,-0.424 0.214,-0.407C0.199,-0.39 0.186,-0.368 0.176,-0.343C0.165,-0.318 0.157,-0.29 0.152,-0.261C0.146,-0.232 0.143,-0.205 0.143,-0.18C0.143,-0.15 0.148,-0.126 0.158,-0.107C0.168,-0.088 0.184,-0.078 0.206,-0.078C0.226,-0.078 0.244,-0.086 0.259,-0.103C0.274,-0.12 0.287,-0.14 0.298,-0.165C0.308,-0.19 0.316,-0.217 0.322,-0.246C0.327,-0.274 0.33,-0.302 0.33,-0.327Z" style="fill:white;fill-rule:nonzero;"/>
            </g>
            <g transform="matrix(416.667,0,0,416.667,794.816,2061.43)">
                <path d="M0.343,-0L0.032,-0L0.155,-0.708L0.27,-0.708L0.166,-0.106L0.361,-0.106L0.343,-0Z" style="fill:white;fill-rule:nonzero;"/>
            </g>
            <g transform="matrix(416.667,0,0,416.667,957.316,2061.43)">
                <path d="M0.256,-0.666C0.256,-0.645 0.249,-0.627 0.236,-0.612C0.223,-0.597 0.206,-0.59 0.186,-0.59C0.167,-0.59 0.153,-0.596 0.143,-0.608C0.133,-0.619 0.128,-0.633 0.128,-0.648C0.128,-0.668 0.135,-0.686 0.148,-0.702C0.161,-0.717 0.178,-0.725 0.199,-0.725C0.217,-0.725 0.231,-0.72 0.241,-0.709C0.251,-0.698 0.256,-0.683 0.256,-0.666ZM0.135,-0L0.027,-0L0.116,-0.508L0.224,-0.508L0.135,-0Z" style="fill:white;fill-rule:nonzero;"/>
            </g>
            <g transform="matrix(416.667,0,0,416.667,1058.15,2061.43)">
                <path d="M0.346,-0.682C0.343,-0.683 0.339,-0.684 0.334,-0.685C0.329,-0.686 0.324,-0.686 0.319,-0.686C0.306,-0.686 0.296,-0.683 0.287,-0.677C0.278,-0.671 0.27,-0.663 0.264,-0.654C0.258,-0.645 0.253,-0.634 0.249,-0.622C0.245,-0.609 0.242,-0.597 0.24,-0.584L0.227,-0.508L0.307,-0.508L0.293,-0.422L0.213,-0.422L0.139,-0L0.035,-0L0.108,-0.422L0.043,-0.422L0.057,-0.508L0.122,-0.508L0.136,-0.584C0.141,-0.611 0.148,-0.636 0.157,-0.659C0.166,-0.682 0.177,-0.703 0.191,-0.72C0.205,-0.737 0.222,-0.751 0.243,-0.761C0.263,-0.771 0.287,-0.776 0.314,-0.776C0.323,-0.776 0.331,-0.776 0.34,-0.775C0.348,-0.774 0.355,-0.772 0.361,-0.77L0.346,-0.682Z" style="fill:white;fill-rule:nonzero;"/>
            </g>
            <g transform="matrix(416.667,0,0,416.667,1169.4,2061.43)">
                <path d="M0.42,-0.354C0.42,-0.341 0.419,-0.325 0.418,-0.306C0.417,-0.287 0.413,-0.261 0.407,-0.227L0.146,-0.227C0.145,-0.219 0.144,-0.211 0.143,-0.203C0.142,-0.195 0.142,-0.187 0.142,-0.18C0.142,-0.151 0.148,-0.127 0.159,-0.109C0.17,-0.09 0.188,-0.081 0.212,-0.081C0.233,-0.081 0.25,-0.088 0.264,-0.101C0.278,-0.114 0.29,-0.129 0.3,-0.146L0.376,-0.097C0.357,-0.064 0.334,-0.037 0.305,-0.016C0.276,0.006 0.241,0.017 0.2,0.017C0.148,0.017 0.108,0 0.079,-0.034C0.05,-0.067 0.036,-0.115 0.036,-0.177C0.036,-0.222 0.042,-0.265 0.053,-0.307C0.064,-0.348 0.08,-0.385 0.101,-0.418C0.122,-0.45 0.147,-0.476 0.176,-0.496C0.205,-0.515 0.236,-0.525 0.271,-0.525C0.298,-0.525 0.321,-0.521 0.34,-0.513C0.359,-0.504 0.374,-0.492 0.386,-0.477C0.398,-0.462 0.407,-0.444 0.412,-0.423C0.417,-0.401 0.42,-0.379 0.42,-0.354ZM0.322,-0.354C0.322,-0.379 0.318,-0.399 0.309,-0.414C0.3,-0.429 0.285,-0.436 0.265,-0.436C0.25,-0.436 0.237,-0.432 0.226,-0.423C0.214,-0.414 0.204,-0.403 0.195,-0.39C0.186,-0.377 0.178,-0.362 0.173,-0.347C0.167,-0.332 0.163,-0.318 0.161,-0.305L0.317,-0.305C0.319,-0.314 0.32,-0.323 0.321,-0.331C0.322,-0.339 0.322,-0.347 0.322,-0.354Z" style="fill:white;fill-rule:nonzero;"/>
            </g>
        </g>
        <g transform="matrix(0.493116,0,0,0.493116,2021.86,702.651)">
            <g transform="matrix(1,0,0,1,-1240.16,-1753.94)">
                <g id="g3" transform="matrix(4.16667,0,0,4.16667,381.162,905.488)">
                    <g id="Layer-1" serif:id="Layer 1">
                        <g id="g31" serif:id="g3">
                            <clipPath id="_clip1">
                                <rect x="-0" y="-0" width="405.011" height="373.363"/>
                            </clipPath>
                            <g clip-path="url(#_clip1)">
                                <path d="M350.482,14.318C329.719,25.626 310.703,40.686 294.597,57.995C289.353,63.631 286.529,68.047 281.72,77.168C270.601,69.964 253.881,67.171 239.315,65.574C217.616,63.195 195.28,64.322 173.904,68.748C157.812,72.08 144.919,76.599 127.761,86.109C119.555,75.601 116.864,72.364 110.416,66.474C96.655,53.904 80.735,42.918 65.34,33.389C35.348,14.826 13.671,13.696 2.822,21.485C-3.99,28.557 3.021,59.629 8.193,77.744C13.444,96.133 26.107,114.384 33.718,129.126C41.329,143.867 47.201,151.223 52.87,165.68C58.539,180.137 66.176,216.373 77.79,239.659C84.992,254.098 94.225,267.173 105.139,279.598C116.053,292.024 129.043,302.913 140.674,314.888C151.488,326.021 160.669,338.831 172.509,348.866C182.748,357.545 193.026,367.806 206.01,371.21C220.292,374.955 236.653,373.797 250.179,367.875C263.033,362.247 272.079,350.028 280.979,339.179C290.876,327.115 297.479,312.686 305.58,299.349C313.265,286.699 321.1,273.347 328.354,261.227C335.607,249.108 342.719,234.719 347.299,220.447C354.166,199.047 356.837,166.069 359.776,154.188C362.714,142.307 363.625,142.849 368.107,131.009C372.59,119.169 381.37,101.146 387.088,83.319C392.987,64.931 394.491,58.189 396.386,45.272C397.9,34.959 398.172,24.681 398.003,14.044C397.899,7.495 396.535,0.093 391.719,0.007C376.248,-0.268 363.26,7.359 350.482,14.318Z" style="fill:white;fill-rule:nonzero;"/>
                                <g id="g2" transform="matrix(1,0,0,1,27.9796,310.754)">
                                    <clipPath id="_clip2">
                                        <rect x="-0" y="0" width="211.572" height="57.481"/>
                                    </clipPath>
                                    <g clip-path="url(#_clip2)">
                                        <g transform="matrix(1,0,0,1,30.2502,18.5761)">
                                            <path d="M142.826,1.184C65.411,-5.437 0.178,17.78 0,19.831C-0.176,21.882 64.858,0.956 142.273,7.578" style="fill:white;fill-rule:nonzero;"/>
                                        </g>
                                        <path d="M172.999,19.242C82.464,-9.189 0.611,1.598 0.003,4.026C-0.603,6.455 80.572,-1.621 171.106,26.81" style="fill:white;fill-rule:nonzero;"/>
                                        <g transform="matrix(1,0,0,1,77.6038,8.97465)">
                                            <path d="M133.969,0C60.131,8.92 0.018,46.25 0,48.41C-0.017,50.57 60.074,15.652 133.912,6.732" style="fill:white;fill-rule:nonzero;"/>
                                        </g>
                                    </g>
                                </g>
                                <g id="g2-0" transform="matrix(1,0,0,1,200.627,275.068)">
                                    <clipPath id="_clip3">
                                        <rect x="0" y="0" width="204.385" height="70.688"/>
                                    </clipPath>
                                    <g clip-path="url(#_clip3)">
                                        <g transform="matrix(1,0,0,1,39.9549,38.4293)">
                                            <path d="M0,18.167C73.642,-6.607 142.518,0.494 143.177,2.445C143.834,4.397 75.695,-0.526 2.053,24.247" style="fill:white;fill-rule:nonzero;"/>
                                        </g>
                                        <g transform="matrix(1,0,0,1,39.9078,0)">
                                            <path d="M0,56.075C81.221,7.004 163.299,-1.909 164.464,0.307C165.629,2.522 84.852,13.908 3.631,62.978" style="fill:white;fill-rule:nonzero;"/>
                                        </g>
                                        <g transform="matrix(1,0,0,1,0,53.1603)">
                                            <path d="M0,2.078C73.849,-6.75 141.094,15.276 141.623,17.37C142.152,19.465 75.499,-0.223 1.65,8.605" style="fill:white;fill-rule:nonzero;"/>
                                        </g>
                                    </g>
                                </g>
                            </g>
                        </g>
                    </g>
                </g>
            </g>
        </g>
        <g transform="matrix(1.5688,0,0,1.5688,-1689.64,-1340.95)">
            <g transform="matrix(71.0066,0,0,90.3026,1694.7,1761.67)">
                <path d="M0.496,-0.275C0.466,-0.264 0.433,-0.258 0.396,-0.258L0.232,-0.258L0.232,-0L0.082,-0L0.082,-0.718L0.408,-0.718C0.446,-0.718 0.479,-0.713 0.508,-0.702C0.536,-0.692 0.559,-0.677 0.578,-0.657C0.596,-0.637 0.61,-0.613 0.619,-0.584C0.628,-0.556 0.633,-0.524 0.633,-0.488C0.633,-0.454 0.627,-0.423 0.617,-0.395C0.606,-0.367 0.59,-0.343 0.57,-0.323C0.55,-0.302 0.525,-0.286 0.496,-0.275ZM0.232,-0.382L0.374,-0.382C0.408,-0.382 0.434,-0.39 0.454,-0.407C0.473,-0.423 0.483,-0.45 0.483,-0.488C0.483,-0.507 0.48,-0.523 0.475,-0.536C0.47,-0.549 0.463,-0.56 0.454,-0.569C0.445,-0.578 0.433,-0.584 0.42,-0.588C0.406,-0.592 0.391,-0.594 0.374,-0.594L0.232,-0.594L0.232,-0.382Z" style="fill:white;fill-rule:nonzero;"/>
            </g>
            <g transform="matrix(71.0066,0,0,90.3026,1742.06,1761.67)">
                <path d="M0.309,-0.332C0.314,-0.333 0.319,-0.334 0.325,-0.335C0.331,-0.336 0.336,-0.338 0.341,-0.342C0.346,-0.345 0.35,-0.349 0.353,-0.354C0.356,-0.36 0.358,-0.367 0.358,-0.376C0.358,-0.385 0.357,-0.393 0.354,-0.4C0.351,-0.407 0.346,-0.414 0.34,-0.419C0.333,-0.425 0.325,-0.429 0.314,-0.432C0.303,-0.435 0.289,-0.436 0.273,-0.436C0.254,-0.436 0.24,-0.434 0.228,-0.43C0.217,-0.427 0.208,-0.421 0.202,-0.415C0.195,-0.408 0.19,-0.4 0.188,-0.391C0.185,-0.382 0.182,-0.373 0.181,-0.363L0.043,-0.363C0.043,-0.369 0.044,-0.378 0.046,-0.39C0.048,-0.401 0.052,-0.414 0.058,-0.428C0.064,-0.441 0.072,-0.455 0.082,-0.469C0.092,-0.483 0.106,-0.496 0.122,-0.508C0.139,-0.519 0.16,-0.529 0.184,-0.536C0.208,-0.544 0.236,-0.548 0.27,-0.548C0.318,-0.548 0.356,-0.543 0.385,-0.533C0.415,-0.524 0.438,-0.511 0.454,-0.496C0.471,-0.48 0.482,-0.463 0.488,-0.444C0.493,-0.425 0.496,-0.406 0.496,-0.387L0.496,-0.105C0.496,-0.089 0.497,-0.076 0.499,-0.066C0.501,-0.055 0.503,-0.047 0.506,-0.041C0.509,-0.035 0.512,-0.031 0.516,-0.028C0.52,-0.025 0.524,-0.023 0.528,-0.022L0.528,-0L0.375,-0C0.372,-0.006 0.37,-0.014 0.366,-0.025C0.363,-0.035 0.362,-0.047 0.362,-0.062C0.351,-0.051 0.341,-0.041 0.33,-0.031C0.32,-0.022 0.309,-0.014 0.296,-0.007C0.283,0 0.269,0.006 0.252,0.01C0.235,0.014 0.215,0.016 0.192,0.016C0.168,0.016 0.146,0.013 0.126,0.006C0.106,-0.001 0.089,-0.012 0.074,-0.025C0.06,-0.039 0.048,-0.056 0.04,-0.077C0.032,-0.097 0.028,-0.121 0.028,-0.148C0.028,-0.17 0.031,-0.19 0.038,-0.209C0.045,-0.227 0.055,-0.244 0.067,-0.258C0.08,-0.272 0.095,-0.284 0.113,-0.293C0.131,-0.302 0.151,-0.309 0.174,-0.312L0.309,-0.332ZM0.208,-0.086C0.217,-0.083 0.226,-0.082 0.236,-0.082C0.241,-0.082 0.248,-0.083 0.256,-0.084C0.264,-0.085 0.273,-0.087 0.282,-0.09C0.291,-0.094 0.3,-0.098 0.309,-0.104C0.318,-0.109 0.326,-0.117 0.333,-0.126C0.341,-0.135 0.347,-0.146 0.351,-0.159C0.356,-0.173 0.358,-0.188 0.358,-0.206L0.358,-0.26C0.349,-0.255 0.341,-0.251 0.333,-0.247C0.324,-0.244 0.313,-0.24 0.299,-0.238L0.262,-0.231C0.246,-0.228 0.232,-0.225 0.22,-0.221C0.208,-0.217 0.198,-0.212 0.19,-0.205C0.182,-0.199 0.176,-0.191 0.172,-0.182C0.168,-0.173 0.166,-0.162 0.166,-0.148C0.166,-0.137 0.168,-0.127 0.171,-0.118C0.175,-0.11 0.18,-0.103 0.186,-0.098C0.193,-0.093 0.2,-0.089 0.208,-0.086Z" style="fill:white;fill-rule:nonzero;"/>
            </g>
            <g transform="matrix(71.0066,0,0,90.3026,1781.56,1761.67)">
                <path d="M0.392,-0.713C0.399,-0.717 0.404,-0.722 0.406,-0.726L0.531,-0.726C0.531,-0.699 0.526,-0.676 0.517,-0.659C0.507,-0.642 0.494,-0.628 0.478,-0.617C0.462,-0.606 0.443,-0.599 0.422,-0.594C0.401,-0.589 0.38,-0.586 0.357,-0.584C0.342,-0.583 0.326,-0.581 0.31,-0.578C0.294,-0.576 0.278,-0.571 0.262,-0.566C0.247,-0.56 0.232,-0.552 0.218,-0.543C0.204,-0.534 0.191,-0.522 0.18,-0.509C0.169,-0.495 0.16,-0.479 0.153,-0.46C0.146,-0.441 0.141,-0.419 0.14,-0.394C0.145,-0.41 0.153,-0.427 0.165,-0.442C0.176,-0.457 0.19,-0.47 0.207,-0.481C0.224,-0.492 0.244,-0.501 0.267,-0.508C0.289,-0.515 0.314,-0.518 0.341,-0.518C0.378,-0.518 0.411,-0.512 0.44,-0.5C0.469,-0.488 0.494,-0.47 0.515,-0.448C0.535,-0.426 0.551,-0.399 0.562,-0.368C0.573,-0.337 0.578,-0.302 0.578,-0.264C0.578,-0.222 0.572,-0.183 0.559,-0.149C0.547,-0.114 0.529,-0.085 0.506,-0.06C0.482,-0.036 0.454,-0.017 0.42,-0.003C0.387,0.01 0.349,0.017 0.307,0.017C0.246,0.017 0.195,0.005 0.155,-0.021C0.115,-0.046 0.084,-0.086 0.063,-0.143C0.056,-0.162 0.05,-0.183 0.046,-0.204C0.042,-0.226 0.04,-0.246 0.038,-0.265C0.036,-0.284 0.035,-0.3 0.035,-0.314C0.034,-0.328 0.034,-0.337 0.034,-0.342C0.034,-0.393 0.04,-0.439 0.052,-0.481C0.063,-0.523 0.082,-0.56 0.108,-0.591C0.133,-0.623 0.166,-0.648 0.206,-0.667C0.247,-0.686 0.295,-0.698 0.353,-0.704C0.371,-0.705 0.384,-0.708 0.392,-0.713ZM0.312,-0.416C0.288,-0.416 0.268,-0.412 0.251,-0.404C0.234,-0.396 0.221,-0.385 0.21,-0.371C0.199,-0.357 0.191,-0.342 0.187,-0.323C0.182,-0.305 0.179,-0.286 0.179,-0.266C0.179,-0.246 0.181,-0.226 0.186,-0.206C0.19,-0.187 0.197,-0.169 0.208,-0.154C0.218,-0.138 0.231,-0.126 0.247,-0.116C0.263,-0.107 0.283,-0.102 0.307,-0.102C0.332,-0.102 0.353,-0.107 0.369,-0.116C0.386,-0.125 0.399,-0.137 0.409,-0.153C0.418,-0.168 0.425,-0.185 0.429,-0.205C0.433,-0.225 0.435,-0.245 0.435,-0.266C0.435,-0.287 0.433,-0.306 0.428,-0.325C0.424,-0.343 0.417,-0.359 0.407,-0.372C0.397,-0.386 0.384,-0.396 0.369,-0.404C0.353,-0.412 0.334,-0.416 0.312,-0.416Z" style="fill:white;fill-rule:nonzero;"/>
            </g>
            <g transform="matrix(71.0066,0,0,90.3026,1824.93,1761.67)">
                <path d="M0.193,-0.005C0.159,-0.019 0.131,-0.038 0.107,-0.063C0.084,-0.089 0.066,-0.118 0.053,-0.153C0.04,-0.187 0.034,-0.225 0.034,-0.266C0.034,-0.307 0.04,-0.345 0.053,-0.379C0.066,-0.414 0.084,-0.444 0.107,-0.469C0.131,-0.493 0.159,-0.513 0.193,-0.527C0.226,-0.541 0.264,-0.548 0.306,-0.548C0.349,-0.548 0.387,-0.541 0.421,-0.527C0.454,-0.513 0.483,-0.493 0.506,-0.469C0.529,-0.444 0.547,-0.414 0.56,-0.379C0.572,-0.345 0.578,-0.307 0.578,-0.266C0.578,-0.225 0.572,-0.187 0.56,-0.153C0.547,-0.118 0.529,-0.089 0.506,-0.063C0.483,-0.038 0.454,-0.019 0.421,-0.005C0.387,0.009 0.349,0.016 0.306,0.016C0.264,0.016 0.226,0.009 0.193,-0.005ZM0.185,-0.207C0.189,-0.187 0.196,-0.169 0.207,-0.154C0.217,-0.138 0.23,-0.126 0.246,-0.116C0.262,-0.107 0.282,-0.102 0.306,-0.102C0.331,-0.102 0.351,-0.107 0.368,-0.116C0.384,-0.125 0.397,-0.137 0.407,-0.153C0.417,-0.168 0.424,-0.185 0.428,-0.205C0.432,-0.225 0.434,-0.245 0.434,-0.266C0.434,-0.287 0.432,-0.307 0.428,-0.327C0.424,-0.347 0.417,-0.365 0.407,-0.38C0.397,-0.395 0.384,-0.407 0.368,-0.416C0.351,-0.426 0.331,-0.43 0.306,-0.43C0.282,-0.43 0.262,-0.425 0.246,-0.416C0.23,-0.407 0.217,-0.394 0.207,-0.379C0.196,-0.363 0.189,-0.346 0.185,-0.326C0.18,-0.306 0.178,-0.286 0.178,-0.266C0.178,-0.246 0.181,-0.226 0.185,-0.207Z" style="fill:white;fill-rule:nonzero;"/>
            </g>
            <g transform="matrix(71.0066,0,0,90.3026,1868.37,1761.67)">
                <path d="M0.48,-0.532L0.48,-0.42L0.319,-0.42L0.319,-0L0.181,-0L0.181,-0.42L0.02,-0.42L0.02,-0.532L0.48,-0.532Z" style="fill:white;fill-rule:nonzero;"/>
            </g>
            <g transform="matrix(71.0066,0,0,90.3026,1903.88,1761.67)">
                <path d="M0.407,-0L0.407,-0.321L0.405,-0.321L0.217,-0L0.066,-0L0.066,-0.532L0.204,-0.532L0.204,-0.204L0.206,-0.204L0.4,-0.532L0.545,-0.532L0.545,-0L0.407,-0Z" style="fill:white;fill-rule:nonzero;"/>
            </g>
            <g transform="matrix(71.0066,0,0,90.3026,1947.25,1761.67)">
                <path d="M0.454,-0.532L0.656,-0.532L0.656,-0L0.526,-0L0.526,-0.428L0.524,-0.428L0.424,-0L0.298,-0L0.198,-0.428L0.196,-0.428L0.196,-0L0.066,-0L0.066,-0.532L0.274,-0.532L0.364,-0.146L0.366,-0.146L0.454,-0.532Z" style="fill:white;fill-rule:nonzero;"/>
            </g>
            <g transform="matrix(71.0066,0,0,90.3026,2012.73,1761.67)">
                <path d="M0.184,-0.323L0.237,-0.323C0.268,-0.323 0.29,-0.329 0.302,-0.339C0.315,-0.35 0.322,-0.366 0.322,-0.386C0.322,-0.398 0.32,-0.408 0.316,-0.417C0.312,-0.425 0.307,-0.431 0.301,-0.436C0.294,-0.441 0.286,-0.445 0.277,-0.447C0.268,-0.449 0.258,-0.45 0.247,-0.45C0.223,-0.45 0.203,-0.445 0.188,-0.433C0.173,-0.422 0.165,-0.406 0.165,-0.385L0.035,-0.385C0.035,-0.414 0.041,-0.439 0.053,-0.46C0.065,-0.48 0.08,-0.497 0.1,-0.51C0.12,-0.523 0.143,-0.533 0.17,-0.539C0.197,-0.545 0.227,-0.548 0.258,-0.548C0.293,-0.548 0.323,-0.544 0.349,-0.535C0.374,-0.527 0.395,-0.515 0.412,-0.501C0.428,-0.487 0.44,-0.471 0.448,-0.453C0.456,-0.435 0.46,-0.417 0.46,-0.398C0.46,-0.382 0.458,-0.368 0.453,-0.356C0.449,-0.344 0.442,-0.333 0.435,-0.324C0.427,-0.316 0.418,-0.308 0.407,-0.302C0.397,-0.296 0.387,-0.292 0.375,-0.289L0.375,-0.287C0.394,-0.284 0.41,-0.279 0.423,-0.271C0.436,-0.263 0.446,-0.253 0.455,-0.242C0.463,-0.231 0.469,-0.219 0.472,-0.206C0.476,-0.193 0.478,-0.18 0.478,-0.167C0.478,-0.134 0.472,-0.106 0.458,-0.083C0.445,-0.059 0.428,-0.041 0.407,-0.026C0.386,-0.011 0.363,-0.001 0.337,0.006C0.31,0.013 0.284,0.016 0.258,0.016C0.223,0.016 0.192,0.013 0.163,0.007C0.134,0 0.109,-0.01 0.089,-0.025C0.068,-0.039 0.052,-0.058 0.04,-0.081C0.028,-0.105 0.022,-0.133 0.022,-0.167L0.154,-0.167C0.154,-0.155 0.156,-0.143 0.161,-0.133C0.165,-0.122 0.172,-0.113 0.18,-0.106C0.188,-0.098 0.198,-0.093 0.209,-0.088C0.22,-0.084 0.233,-0.082 0.247,-0.082C0.264,-0.082 0.278,-0.085 0.289,-0.09C0.301,-0.095 0.309,-0.102 0.316,-0.11C0.322,-0.118 0.327,-0.127 0.33,-0.136C0.333,-0.146 0.334,-0.154 0.334,-0.162C0.334,-0.188 0.327,-0.205 0.313,-0.216C0.299,-0.226 0.277,-0.231 0.247,-0.231L0.184,-0.231L0.184,-0.323Z" style="fill:white;fill-rule:nonzero;"/>
            </g>
            <g transform="matrix(71.0066,0,0,90.3026,2048.23,1761.67)">
                <path d="M0.309,-0.332C0.314,-0.333 0.319,-0.334 0.325,-0.335C0.331,-0.336 0.336,-0.338 0.341,-0.342C0.346,-0.345 0.35,-0.349 0.353,-0.354C0.356,-0.36 0.358,-0.367 0.358,-0.376C0.358,-0.385 0.357,-0.393 0.354,-0.4C0.351,-0.407 0.346,-0.414 0.34,-0.419C0.333,-0.425 0.325,-0.429 0.314,-0.432C0.303,-0.435 0.289,-0.436 0.273,-0.436C0.254,-0.436 0.24,-0.434 0.228,-0.43C0.217,-0.427 0.208,-0.421 0.202,-0.415C0.195,-0.408 0.19,-0.4 0.188,-0.391C0.185,-0.382 0.182,-0.373 0.181,-0.363L0.043,-0.363C0.043,-0.369 0.044,-0.378 0.046,-0.39C0.048,-0.401 0.052,-0.414 0.058,-0.428C0.064,-0.441 0.072,-0.455 0.082,-0.469C0.092,-0.483 0.106,-0.496 0.122,-0.508C0.139,-0.519 0.16,-0.529 0.184,-0.536C0.208,-0.544 0.236,-0.548 0.27,-0.548C0.318,-0.548 0.356,-0.543 0.385,-0.533C0.415,-0.524 0.438,-0.511 0.454,-0.496C0.471,-0.48 0.482,-0.463 0.488,-0.444C0.493,-0.425 0.496,-0.406 0.496,-0.387L0.496,-0.105C0.496,-0.089 0.497,-0.076 0.499,-0.066C0.501,-0.055 0.503,-0.047 0.506,-0.041C0.509,-0.035 0.512,-0.031 0.516,-0.028C0.52,-0.025 0.524,-0.023 0.528,-0.022L0.528,-0L0.375,-0C0.372,-0.006 0.37,-0.014 0.366,-0.025C0.363,-0.035 0.362,-0.047 0.362,-0.062C0.351,-0.051 0.341,-0.041 0.33,-0.031C0.32,-0.022 0.309,-0.014 0.296,-0.007C0.283,0 0.269,0.006 0.252,0.01C0.235,0.014 0.215,0.016 0.192,0.016C0.168,0.016 0.146,0.013 0.126,0.006C0.106,-0.001 0.089,-0.012 0.074,-0.025C0.06,-0.039 0.048,-0.056 0.04,-0.077C0.032,-0.097 0.028,-0.121 0.028,-0.148C0.028,-0.17 0.031,-0.19 0.038,-0.209C0.045,-0.227 0.055,-0.244 0.067,-0.258C0.08,-0.272 0.095,-0.284 0.113,-0.293C0.131,-0.302 0.151,-0.309 0.174,-0.312L0.309,-0.332ZM0.208,-0.086C0.217,-0.083 0.226,-0.082 0.236,-0.082C0.241,-0.082 0.248,-0.083 0.256,-0.084C0.264,-0.085 0.273,-0.087 0.282,-0.09C0.291,-0.094 0.3,-0.098 0.309,-0.104C0.318,-0.109 0.326,-0.117 0.333,-0.126C0.341,-0.135 0.347,-0.146 0.351,-0.159C0.356,-0.173 0.358,-0.188 0.358,-0.206L0.358,-0.26C0.349,-0.255 0.341,-0.251 0.333,-0.247C0.324,-0.244 0.313,-0.24 0.299,-0.238L0.262,-0.231C0.246,-0.228 0.232,-0.225 0.22,-0.221C0.208,-0.217 0.198,-0.212 0.19,-0.205C0.182,-0.199 0.176,-0.191 0.172,-0.182C0.168,-0.173 0.166,-0.162 0.166,-0.148C0.166,-0.137 0.168,-0.127 0.171,-0.118C0.175,-0.11 0.18,-0.103 0.186,-0.098C0.193,-0.093 0.2,-0.089 0.208,-0.086Z" style="fill:white;fill-rule:nonzero;"/>
            </g>
            <g transform="matrix(71.0066,0,0,90.3026,2101.92,1761.67)">
                <path d="M0.512,-0.709C0.534,-0.704 0.553,-0.696 0.569,-0.687C0.586,-0.678 0.599,-0.667 0.61,-0.654C0.621,-0.642 0.63,-0.629 0.637,-0.615C0.643,-0.602 0.648,-0.588 0.651,-0.574C0.653,-0.56 0.655,-0.547 0.655,-0.534C0.655,-0.516 0.653,-0.5 0.65,-0.485C0.647,-0.471 0.642,-0.457 0.635,-0.446C0.628,-0.434 0.618,-0.423 0.607,-0.413C0.596,-0.404 0.583,-0.395 0.567,-0.387C0.591,-0.378 0.61,-0.367 0.625,-0.354C0.64,-0.34 0.651,-0.326 0.659,-0.31C0.667,-0.295 0.672,-0.279 0.674,-0.262C0.677,-0.246 0.678,-0.23 0.678,-0.215C0.678,-0.18 0.672,-0.149 0.659,-0.123C0.646,-0.096 0.629,-0.073 0.605,-0.055C0.582,-0.037 0.554,-0.024 0.521,-0.014C0.488,-0.005 0.451,-0 0.411,-0L0.082,-0L0.082,-0.718L0.434,-0.718C0.463,-0.718 0.489,-0.715 0.512,-0.709ZM0.453,-0.314C0.438,-0.316 0.424,-0.317 0.409,-0.317L0.226,-0.317L0.226,-0.124L0.413,-0.124C0.43,-0.124 0.445,-0.126 0.459,-0.13C0.473,-0.134 0.485,-0.14 0.495,-0.148C0.506,-0.156 0.514,-0.166 0.519,-0.178C0.525,-0.19 0.528,-0.205 0.528,-0.221C0.528,-0.242 0.524,-0.259 0.518,-0.271C0.511,-0.284 0.502,-0.293 0.49,-0.3C0.479,-0.307 0.467,-0.312 0.453,-0.314ZM0.481,-0.454C0.49,-0.461 0.497,-0.469 0.503,-0.479C0.508,-0.49 0.511,-0.502 0.511,-0.517C0.511,-0.532 0.509,-0.545 0.504,-0.555C0.499,-0.565 0.492,-0.573 0.483,-0.579C0.474,-0.584 0.464,-0.589 0.452,-0.591C0.44,-0.593 0.428,-0.594 0.415,-0.594L0.226,-0.594L0.226,-0.435L0.411,-0.435C0.424,-0.435 0.437,-0.437 0.449,-0.439C0.461,-0.442 0.472,-0.447 0.481,-0.454Z" style="fill:white;fill-rule:nonzero;"/>
            </g>
            <g transform="matrix(71.0066,0,0,90.3026,2153.2,1761.67)">
                <path d="M0.309,-0.332C0.314,-0.333 0.319,-0.334 0.325,-0.335C0.331,-0.336 0.336,-0.338 0.341,-0.342C0.346,-0.345 0.35,-0.349 0.353,-0.354C0.356,-0.36 0.358,-0.367 0.358,-0.376C0.358,-0.385 0.357,-0.393 0.354,-0.4C0.351,-0.407 0.346,-0.414 0.34,-0.419C0.333,-0.425 0.325,-0.429 0.314,-0.432C0.303,-0.435 0.289,-0.436 0.273,-0.436C0.254,-0.436 0.24,-0.434 0.228,-0.43C0.217,-0.427 0.208,-0.421 0.202,-0.415C0.195,-0.408 0.19,-0.4 0.188,-0.391C0.185,-0.382 0.182,-0.373 0.181,-0.363L0.043,-0.363C0.043,-0.369 0.044,-0.378 0.046,-0.39C0.048,-0.401 0.052,-0.414 0.058,-0.428C0.064,-0.441 0.072,-0.455 0.082,-0.469C0.092,-0.483 0.106,-0.496 0.122,-0.508C0.139,-0.519 0.16,-0.529 0.184,-0.536C0.208,-0.544 0.236,-0.548 0.27,-0.548C0.318,-0.548 0.356,-0.543 0.385,-0.533C0.415,-0.524 0.438,-0.511 0.454,-0.496C0.471,-0.48 0.482,-0.463 0.488,-0.444C0.493,-0.425 0.496,-0.406 0.496,-0.387L0.496,-0.105C0.496,-0.089 0.497,-0.076 0.499,-0.066C0.501,-0.055 0.503,-0.047 0.506,-0.041C0.509,-0.035 0.512,-0.031 0.516,-0.028C0.52,-0.025 0.524,-0.023 0.528,-0.022L0.528,-0L0.375,-0C0.372,-0.006 0.37,-0.014 0.366,-0.025C0.363,-0.035 0.362,-0.047 0.362,-0.062C0.351,-0.051 0.341,-0.041 0.33,-0.031C0.32,-0.022 0.309,-0.014 0.296,-0.007C0.283,0 0.269,0.006 0.252,0.01C0.235,0.014 0.215,0.016 0.192,0.016C0.168,0.016 0.146,0.013 0.126,0.006C0.106,-0.001 0.089,-0.012 0.074,-0.025C0.06,-0.039 0.048,-0.056 0.04,-0.077C0.032,-0.097 0.028,-0.121 0.028,-0.148C0.028,-0.17 0.031,-0.19 0.038,-0.209C0.045,-0.227 0.055,-0.244 0.067,-0.258C0.08,-0.272 0.095,-0.284 0.113,-0.293C0.131,-0.302 0.151,-0.309 0.174,-0.312L0.309,-0.332ZM0.208,-0.086C0.217,-0.083 0.226,-0.082 0.236,-0.082C0.241,-0.082 0.248,-0.083 0.256,-0.084C0.264,-0.085 0.273,-0.087 0.282,-0.09C0.291,-0.094 0.3,-0.098 0.309,-0.104C0.318,-0.109 0.326,-0.117 0.333,-0.126C0.341,-0.135 0.347,-0.146 0.351,-0.159C0.356,-0.173 0.358,-0.188 0.358,-0.206L0.358,-0.26C0.349,-0.255 0.341,-0.251 0.333,-0.247C0.324,-0.244 0.313,-0.24 0.299,-0.238L0.262,-0.231C0.246,-0.228 0.232,-0.225 0.22,-0.221C0.208,-0.217 0.198,-0.212 0.19,-0.205C0.182,-0.199 0.176,-0.191 0.172,-0.182C0.168,-0.173 0.166,-0.162 0.166,-0.148C0.166,-0.137 0.168,-0.127 0.171,-0.118C0.175,-0.11 0.18,-0.103 0.186,-0.098C0.193,-0.093 0.2,-0.089 0.208,-0.086Z" style="fill:white;fill-rule:nonzero;"/>
            </g>
            <g transform="matrix(71.0066,0,0,90.3026,2192.69,1761.67)">
                <path d="M0.26,-0.526C0.273,-0.533 0.287,-0.539 0.302,-0.542C0.318,-0.546 0.335,-0.548 0.355,-0.548C0.371,-0.548 0.388,-0.546 0.405,-0.542C0.423,-0.538 0.439,-0.532 0.456,-0.523C0.472,-0.515 0.488,-0.503 0.502,-0.49C0.517,-0.476 0.53,-0.459 0.541,-0.438C0.552,-0.418 0.561,-0.395 0.567,-0.368C0.574,-0.341 0.577,-0.31 0.577,-0.276C0.577,-0.233 0.573,-0.194 0.563,-0.158C0.554,-0.122 0.54,-0.091 0.521,-0.065C0.503,-0.04 0.479,-0.02 0.45,-0.005C0.422,0.009 0.389,0.016 0.35,0.016C0.337,0.016 0.323,0.015 0.31,0.012C0.296,0.01 0.283,0.005 0.27,-0.001C0.257,-0.007 0.244,-0.016 0.233,-0.026C0.221,-0.037 0.211,-0.05 0.202,-0.066L0.2,-0.066L0.2,0.206L0.062,0.206L0.062,-0.532L0.194,-0.532L0.194,-0.456L0.196,-0.456C0.205,-0.472 0.215,-0.486 0.226,-0.497C0.236,-0.509 0.248,-0.518 0.26,-0.526ZM0.238,-0.131C0.247,-0.123 0.258,-0.115 0.27,-0.11C0.282,-0.105 0.297,-0.102 0.314,-0.102C0.331,-0.102 0.346,-0.105 0.358,-0.11C0.37,-0.115 0.381,-0.123 0.39,-0.131C0.398,-0.14 0.406,-0.15 0.411,-0.162C0.417,-0.173 0.422,-0.185 0.425,-0.197C0.428,-0.209 0.43,-0.221 0.431,-0.233C0.433,-0.245 0.433,-0.256 0.433,-0.266C0.433,-0.285 0.431,-0.303 0.427,-0.322C0.423,-0.341 0.416,-0.358 0.406,-0.373C0.397,-0.388 0.385,-0.4 0.37,-0.41C0.354,-0.419 0.336,-0.424 0.314,-0.424C0.292,-0.424 0.273,-0.419 0.258,-0.41C0.243,-0.4 0.231,-0.388 0.221,-0.373C0.212,-0.358 0.205,-0.341 0.201,-0.322C0.197,-0.303 0.195,-0.285 0.195,-0.266C0.195,-0.256 0.195,-0.245 0.197,-0.233C0.198,-0.221 0.2,-0.209 0.203,-0.197C0.206,-0.185 0.211,-0.173 0.217,-0.162C0.222,-0.15 0.229,-0.14 0.238,-0.131Z" style="fill:white;fill-rule:nonzero;"/>
            </g>
            <g transform="matrix(71.0066,0,0,90.3026,2236.07,1761.67)">
                <path d="M0.407,-0.228L0.204,-0.228L0.204,-0L0.066,-0L0.066,-0.532L0.204,-0.532L0.204,-0.34L0.407,-0.34L0.407,-0.532L0.545,-0.532L0.545,-0L0.407,-0L0.407,-0.228Z" style="fill:white;fill-rule:nonzero;"/>
            </g>
            <g transform="matrix(71.0066,0,0,90.3026,2279.44,1761.67)">
                <path d="M0.309,-0.332C0.314,-0.333 0.319,-0.334 0.325,-0.335C0.331,-0.336 0.336,-0.338 0.341,-0.342C0.346,-0.345 0.35,-0.349 0.353,-0.354C0.356,-0.36 0.358,-0.367 0.358,-0.376C0.358,-0.385 0.357,-0.393 0.354,-0.4C0.351,-0.407 0.346,-0.414 0.34,-0.419C0.333,-0.425 0.325,-0.429 0.314,-0.432C0.303,-0.435 0.289,-0.436 0.273,-0.436C0.254,-0.436 0.24,-0.434 0.228,-0.43C0.217,-0.427 0.208,-0.421 0.202,-0.415C0.195,-0.408 0.19,-0.4 0.188,-0.391C0.185,-0.382 0.182,-0.373 0.181,-0.363L0.043,-0.363C0.043,-0.369 0.044,-0.378 0.046,-0.39C0.048,-0.401 0.052,-0.414 0.058,-0.428C0.064,-0.441 0.072,-0.455 0.082,-0.469C0.092,-0.483 0.106,-0.496 0.122,-0.508C0.139,-0.519 0.16,-0.529 0.184,-0.536C0.208,-0.544 0.236,-0.548 0.27,-0.548C0.318,-0.548 0.356,-0.543 0.385,-0.533C0.415,-0.524 0.438,-0.511 0.454,-0.496C0.471,-0.48 0.482,-0.463 0.488,-0.444C0.493,-0.425 0.496,-0.406 0.496,-0.387L0.496,-0.105C0.496,-0.089 0.497,-0.076 0.499,-0.066C0.501,-0.055 0.503,-0.047 0.506,-0.041C0.509,-0.035 0.512,-0.031 0.516,-0.028C0.52,-0.025 0.524,-0.023 0.528,-0.022L0.528,-0L0.375,-0C0.372,-0.006 0.37,-0.014 0.366,-0.025C0.363,-0.035 0.362,-0.047 0.362,-0.062C0.351,-0.051 0.341,-0.041 0.33,-0.031C0.32,-0.022 0.309,-0.014 0.296,-0.007C0.283,0 0.269,0.006 0.252,0.01C0.235,0.014 0.215,0.016 0.192,0.016C0.168,0.016 0.146,0.013 0.126,0.006C0.106,-0.001 0.089,-0.012 0.074,-0.025C0.06,-0.039 0.048,-0.056 0.04,-0.077C0.032,-0.097 0.028,-0.121 0.028,-0.148C0.028,-0.17 0.031,-0.19 0.038,-0.209C0.045,-0.227 0.055,-0.244 0.067,-0.258C0.08,-0.272 0.095,-0.284 0.113,-0.293C0.131,-0.302 0.151,-0.309 0.174,-0.312L0.309,-0.332ZM0.208,-0.086C0.217,-0.083 0.226,-0.082 0.236,-0.082C0.241,-0.082 0.248,-0.083 0.256,-0.084C0.264,-0.085 0.273,-0.087 0.282,-0.09C0.291,-0.094 0.3,-0.098 0.309,-0.104C0.318,-0.109 0.326,-0.117 0.333,-0.126C0.341,-0.135 0.347,-0.146 0.351,-0.159C0.356,-0.173 0.358,-0.188 0.358,-0.206L0.358,-0.26C0.349,-0.255 0.341,-0.251 0.333,-0.247C0.324,-0.244 0.313,-0.24 0.299,-0.238L0.262,-0.231C0.246,-0.228 0.232,-0.225 0.22,-0.221C0.208,-0.217 0.198,-0.212 0.19,-0.205C0.182,-0.199 0.176,-0.191 0.172,-0.182C0.168,-0.173 0.166,-0.162 0.166,-0.148C0.166,-0.137 0.168,-0.127 0.171,-0.118C0.175,-0.11 0.18,-0.103 0.186,-0.098C0.193,-0.093 0.2,-0.089 0.208,-0.086Z" style="fill:white;fill-rule:nonzero;"/>
            </g>
            <g transform="matrix(71.0066,0,0,90.3026,2318.93,1761.67)">
                <path d="M0.143,0.118L0.027,0.118L0.087,-0.167L0.224,-0.167L0.143,0.118Z" style="fill:white;fill-rule:nonzero;"/>
            </g>
            <g transform="matrix(71.0066,0,0,90.3026,2349.59,1761.67)">
                <path d="M0.368,-0L0.07,-0L0.07,-0.532L0.345,-0.532C0.37,-0.532 0.393,-0.53 0.416,-0.526C0.438,-0.522 0.458,-0.514 0.476,-0.504C0.493,-0.493 0.507,-0.479 0.517,-0.461C0.527,-0.443 0.532,-0.42 0.532,-0.392C0.532,-0.376 0.531,-0.362 0.527,-0.351C0.524,-0.339 0.519,-0.329 0.513,-0.321C0.507,-0.312 0.501,-0.305 0.493,-0.3C0.485,-0.294 0.477,-0.289 0.469,-0.285C0.496,-0.276 0.516,-0.261 0.53,-0.24C0.544,-0.219 0.551,-0.195 0.551,-0.166C0.551,-0.141 0.547,-0.118 0.538,-0.098C0.53,-0.078 0.517,-0.06 0.502,-0.046C0.486,-0.031 0.467,-0.02 0.444,-0.012C0.421,-0.004 0.396,-0 0.368,-0ZM0.357,-0.228C0.345,-0.23 0.331,-0.231 0.314,-0.231L0.208,-0.231L0.208,-0.098L0.314,-0.098C0.334,-0.098 0.35,-0.1 0.363,-0.104C0.375,-0.109 0.384,-0.114 0.391,-0.121C0.398,-0.127 0.402,-0.134 0.404,-0.142C0.406,-0.15 0.407,-0.157 0.407,-0.164C0.407,-0.177 0.406,-0.188 0.402,-0.197C0.399,-0.205 0.393,-0.212 0.386,-0.217C0.379,-0.222 0.369,-0.226 0.357,-0.228ZM0.378,-0.338C0.384,-0.342 0.388,-0.348 0.391,-0.355C0.393,-0.362 0.395,-0.37 0.395,-0.38C0.395,-0.388 0.393,-0.395 0.391,-0.402C0.388,-0.408 0.384,-0.414 0.378,-0.419C0.373,-0.423 0.365,-0.427 0.355,-0.43C0.345,-0.433 0.333,-0.434 0.318,-0.434L0.208,-0.434L0.208,-0.323L0.314,-0.323C0.33,-0.323 0.343,-0.324 0.354,-0.327C0.364,-0.329 0.372,-0.333 0.378,-0.338Z" style="fill:white;fill-rule:nonzero;"/>
            </g>
            <g transform="matrix(71.0066,0,0,90.3026,2406.13,1761.67)">
                <path d="M0.6,-0L0.42,-0L0.264,-0.225L0.208,-0.168L0.208,-0L0.07,-0L0.07,-0.532L0.208,-0.532L0.208,-0.33L0.407,-0.532L0.591,-0.532L0.371,-0.311L0.6,-0Z" style="fill:white;fill-rule:nonzero;"/>
            </g>
            <g transform="matrix(71.0066,0,0,90.3026,2449.5,1761.67)">
                <path d="M0.193,-0.005C0.159,-0.019 0.131,-0.038 0.107,-0.063C0.084,-0.089 0.066,-0.118 0.053,-0.153C0.04,-0.187 0.034,-0.225 0.034,-0.266C0.034,-0.307 0.04,-0.345 0.053,-0.379C0.066,-0.414 0.084,-0.444 0.107,-0.469C0.131,-0.493 0.159,-0.513 0.193,-0.527C0.226,-0.541 0.264,-0.548 0.306,-0.548C0.349,-0.548 0.387,-0.541 0.421,-0.527C0.454,-0.513 0.483,-0.493 0.506,-0.469C0.529,-0.444 0.547,-0.414 0.56,-0.379C0.572,-0.345 0.578,-0.307 0.578,-0.266C0.578,-0.225 0.572,-0.187 0.56,-0.153C0.547,-0.118 0.529,-0.089 0.506,-0.063C0.483,-0.038 0.454,-0.019 0.421,-0.005C0.387,0.009 0.349,0.016 0.306,0.016C0.264,0.016 0.226,0.009 0.193,-0.005ZM0.185,-0.207C0.189,-0.187 0.196,-0.169 0.207,-0.154C0.217,-0.138 0.23,-0.126 0.246,-0.116C0.262,-0.107 0.282,-0.102 0.306,-0.102C0.331,-0.102 0.351,-0.107 0.368,-0.116C0.384,-0.125 0.397,-0.137 0.407,-0.153C0.417,-0.168 0.424,-0.185 0.428,-0.205C0.432,-0.225 0.434,-0.245 0.434,-0.266C0.434,-0.287 0.432,-0.307 0.428,-0.327C0.424,-0.347 0.417,-0.365 0.407,-0.38C0.397,-0.395 0.384,-0.407 0.368,-0.416C0.351,-0.426 0.331,-0.43 0.306,-0.43C0.282,-0.43 0.262,-0.425 0.246,-0.416C0.23,-0.407 0.217,-0.394 0.207,-0.379C0.196,-0.363 0.189,-0.346 0.185,-0.326C0.18,-0.306 0.178,-0.286 0.178,-0.266C0.178,-0.246 0.181,-0.226 0.185,-0.207Z" style="fill:white;fill-rule:nonzero;"/>
            </g>
            <g transform="matrix(71.0066,0,0,90.3026,2492.95,1761.67)">
                <path d="M0.088,-0.208C0.093,-0.216 0.1,-0.222 0.109,-0.228C0.118,-0.234 0.131,-0.239 0.146,-0.243C0.141,-0.244 0.136,-0.246 0.13,-0.249C0.124,-0.251 0.117,-0.254 0.111,-0.259C0.104,-0.263 0.097,-0.268 0.091,-0.274C0.084,-0.281 0.078,-0.288 0.072,-0.298C0.068,-0.304 0.064,-0.311 0.062,-0.318C0.059,-0.325 0.057,-0.331 0.056,-0.338C0.055,-0.345 0.054,-0.351 0.054,-0.357C0.053,-0.363 0.053,-0.368 0.053,-0.372C0.053,-0.391 0.056,-0.408 0.06,-0.423C0.065,-0.437 0.07,-0.45 0.078,-0.461C0.085,-0.472 0.093,-0.482 0.102,-0.49C0.111,-0.498 0.12,-0.504 0.13,-0.509C0.14,-0.515 0.152,-0.519 0.165,-0.522C0.177,-0.525 0.19,-0.528 0.202,-0.529C0.214,-0.531 0.225,-0.531 0.235,-0.532C0.246,-0.532 0.254,-0.532 0.26,-0.532L0.546,-0.532L0.546,-0L0.407,-0L0.407,-0.196L0.317,-0.196C0.297,-0.196 0.28,-0.195 0.266,-0.194C0.252,-0.192 0.24,-0.189 0.231,-0.183C0.222,-0.178 0.215,-0.17 0.21,-0.16C0.205,-0.149 0.203,-0.135 0.202,-0.117L0.2,-0.066C0.2,-0.058 0.199,-0.049 0.198,-0.037C0.196,-0.025 0.193,-0.012 0.188,-0L0.042,-0C0.046,-0.007 0.05,-0.014 0.052,-0.021C0.055,-0.027 0.057,-0.034 0.058,-0.04C0.06,-0.047 0.061,-0.053 0.062,-0.06C0.063,-0.066 0.071,-0.144 0.071,-0.144C0.072,-0.158 0.074,-0.171 0.077,-0.181C0.079,-0.192 0.083,-0.201 0.088,-0.208ZM0.207,-0.322C0.213,-0.313 0.22,-0.306 0.229,-0.302C0.238,-0.298 0.248,-0.296 0.259,-0.295C0.27,-0.294 0.281,-0.294 0.292,-0.294L0.407,-0.294L0.407,-0.428L0.296,-0.428C0.284,-0.428 0.272,-0.428 0.261,-0.427C0.249,-0.427 0.239,-0.424 0.229,-0.42C0.22,-0.415 0.212,-0.408 0.207,-0.399C0.201,-0.39 0.198,-0.377 0.198,-0.36C0.198,-0.343 0.201,-0.331 0.207,-0.322Z" style="fill:white;fill-rule:nonzero;"/>
            </g>
            <g transform="matrix(71.0066,0,0,90.3026,2536.32,1761.67)">
                <path d="M0.48,-0.532L0.48,-0.42L0.319,-0.42L0.319,-0L0.181,-0L0.181,-0.42L0.02,-0.42L0.02,-0.532L0.48,-0.532Z" style="fill:white;fill-rule:nonzero;"/>
            </g>
            <g transform="matrix(71.0066,0,0,90.3026,2571.82,1761.67)">
                <path d="M0.193,-0.005C0.159,-0.019 0.131,-0.038 0.107,-0.063C0.084,-0.089 0.066,-0.118 0.053,-0.153C0.04,-0.187 0.034,-0.225 0.034,-0.266C0.034,-0.307 0.04,-0.345 0.053,-0.379C0.066,-0.414 0.084,-0.444 0.107,-0.469C0.131,-0.493 0.159,-0.513 0.193,-0.527C0.226,-0.541 0.264,-0.548 0.306,-0.548C0.349,-0.548 0.387,-0.541 0.421,-0.527C0.454,-0.513 0.483,-0.493 0.506,-0.469C0.529,-0.444 0.547,-0.414 0.56,-0.379C0.572,-0.345 0.578,-0.307 0.578,-0.266C0.578,-0.225 0.572,-0.187 0.56,-0.153C0.547,-0.118 0.529,-0.089 0.506,-0.063C0.483,-0.038 0.454,-0.019 0.421,-0.005C0.387,0.009 0.349,0.016 0.306,0.016C0.264,0.016 0.226,0.009 0.193,-0.005ZM0.185,-0.207C0.189,-0.187 0.196,-0.169 0.207,-0.154C0.217,-0.138 0.23,-0.126 0.246,-0.116C0.262,-0.107 0.282,-0.102 0.306,-0.102C0.331,-0.102 0.351,-0.107 0.368,-0.116C0.384,-0.125 0.397,-0.137 0.407,-0.153C0.417,-0.168 0.424,-0.185 0.428,-0.205C0.432,-0.225 0.434,-0.245 0.434,-0.266C0.434,-0.287 0.432,-0.307 0.428,-0.327C0.424,-0.347 0.417,-0.365 0.407,-0.38C0.397,-0.395 0.384,-0.407 0.368,-0.416C0.351,-0.426 0.331,-0.43 0.306,-0.43C0.282,-0.43 0.262,-0.425 0.246,-0.416C0.23,-0.407 0.217,-0.394 0.207,-0.379C0.196,-0.363 0.189,-0.346 0.185,-0.326C0.18,-0.306 0.178,-0.286 0.178,-0.266C0.178,-0.246 0.181,-0.226 0.185,-0.207Z" style="fill:white;fill-rule:nonzero;"/>
            </g>
            <g transform="matrix(71.0066,0,0,90.3026,1330.17,1862.6)">
                <path d="M0.368,-0L0.07,-0L0.07,-0.532L0.345,-0.532C0.37,-0.532 0.393,-0.53 0.416,-0.526C0.438,-0.522 0.458,-0.514 0.476,-0.504C0.493,-0.493 0.507,-0.479 0.517,-0.461C0.527,-0.443 0.532,-0.42 0.532,-0.392C0.532,-0.376 0.531,-0.362 0.527,-0.351C0.524,-0.339 0.519,-0.329 0.513,-0.321C0.507,-0.312 0.501,-0.305 0.493,-0.3C0.485,-0.294 0.477,-0.289 0.469,-0.285C0.496,-0.276 0.516,-0.261 0.53,-0.24C0.544,-0.219 0.551,-0.195 0.551,-0.166C0.551,-0.141 0.547,-0.118 0.538,-0.098C0.53,-0.078 0.517,-0.06 0.502,-0.046C0.486,-0.031 0.467,-0.02 0.444,-0.012C0.421,-0.004 0.396,-0 0.368,-0ZM0.357,-0.228C0.345,-0.23 0.331,-0.231 0.314,-0.231L0.208,-0.231L0.208,-0.098L0.314,-0.098C0.334,-0.098 0.35,-0.1 0.363,-0.104C0.375,-0.109 0.384,-0.114 0.391,-0.121C0.398,-0.127 0.402,-0.134 0.404,-0.142C0.406,-0.15 0.407,-0.157 0.407,-0.164C0.407,-0.177 0.406,-0.188 0.402,-0.197C0.399,-0.205 0.393,-0.212 0.386,-0.217C0.379,-0.222 0.369,-0.226 0.357,-0.228ZM0.378,-0.338C0.384,-0.342 0.388,-0.348 0.391,-0.355C0.393,-0.362 0.395,-0.37 0.395,-0.38C0.395,-0.388 0.393,-0.395 0.391,-0.402C0.388,-0.408 0.384,-0.414 0.378,-0.419C0.373,-0.423 0.365,-0.427 0.355,-0.43C0.345,-0.433 0.333,-0.434 0.318,-0.434L0.208,-0.434L0.208,-0.323L0.314,-0.323C0.33,-0.323 0.343,-0.324 0.354,-0.327C0.364,-0.329 0.372,-0.333 0.378,-0.338Z" style="fill:white;fill-rule:nonzero;"/>
            </g>
            <g transform="matrix(71.0066,0,0,90.3026,1372.5,1862.6)">
                <path d="M0.284,-0.102C0.3,-0.102 0.314,-0.105 0.326,-0.112C0.337,-0.118 0.347,-0.126 0.355,-0.135C0.363,-0.145 0.369,-0.155 0.372,-0.166C0.376,-0.176 0.378,-0.186 0.378,-0.195L0.522,-0.195C0.522,-0.186 0.52,-0.175 0.517,-0.161C0.514,-0.147 0.509,-0.132 0.502,-0.116C0.495,-0.101 0.485,-0.085 0.473,-0.069C0.462,-0.053 0.447,-0.039 0.429,-0.027C0.411,-0.014 0.39,-0.004 0.367,0.004C0.343,0.012 0.315,0.016 0.284,0.016C0.243,0.016 0.208,0.01 0.177,-0.002C0.145,-0.015 0.119,-0.033 0.098,-0.057C0.077,-0.081 0.061,-0.11 0.051,-0.146C0.04,-0.181 0.034,-0.221 0.034,-0.266C0.034,-0.311 0.04,-0.351 0.052,-0.386C0.064,-0.421 0.081,-0.451 0.103,-0.475C0.124,-0.499 0.151,-0.517 0.181,-0.529C0.212,-0.542 0.246,-0.548 0.284,-0.548C0.3,-0.548 0.317,-0.547 0.335,-0.544C0.352,-0.541 0.369,-0.537 0.386,-0.531C0.403,-0.524 0.419,-0.516 0.435,-0.506C0.45,-0.496 0.464,-0.483 0.476,-0.468C0.489,-0.453 0.499,-0.435 0.507,-0.415C0.515,-0.394 0.52,-0.371 0.522,-0.344L0.378,-0.344C0.375,-0.358 0.372,-0.371 0.367,-0.381C0.363,-0.392 0.357,-0.401 0.349,-0.408C0.342,-0.415 0.333,-0.421 0.323,-0.425C0.312,-0.428 0.299,-0.43 0.284,-0.43C0.261,-0.43 0.243,-0.425 0.229,-0.414C0.215,-0.403 0.204,-0.39 0.197,-0.374C0.189,-0.357 0.184,-0.34 0.182,-0.32C0.179,-0.301 0.178,-0.283 0.178,-0.266C0.178,-0.249 0.179,-0.23 0.181,-0.211C0.183,-0.191 0.188,-0.174 0.195,-0.157C0.202,-0.141 0.213,-0.128 0.227,-0.118C0.241,-0.107 0.26,-0.102 0.284,-0.102Z" style="fill:white;fill-rule:nonzero;"/>
            </g>
            <g transform="matrix(71.0066,0,0,90.3026,1411.99,1862.6)">
                <path d="M0.407,-0L0.407,-0.321L0.405,-0.321L0.217,-0L0.066,-0L0.066,-0.532L0.204,-0.532L0.204,-0.204L0.206,-0.204L0.4,-0.532L0.545,-0.532L0.545,-0L0.407,-0Z" style="fill:white;fill-rule:nonzero;"/>
            </g>
            <g transform="matrix(71.0066,0,0,90.3026,1455.36,1862.6)">
                <path d="M0.328,-0.202C0.318,-0.199 0.307,-0.197 0.295,-0.194C0.282,-0.192 0.27,-0.19 0.257,-0.189C0.243,-0.188 0.231,-0.187 0.219,-0.187C0.188,-0.187 0.162,-0.19 0.138,-0.195C0.115,-0.2 0.095,-0.209 0.079,-0.221C0.063,-0.233 0.051,-0.249 0.043,-0.268C0.035,-0.288 0.031,-0.312 0.031,-0.34L0.031,-0.532L0.169,-0.532L0.169,-0.367C0.169,-0.352 0.171,-0.339 0.175,-0.33C0.178,-0.32 0.184,-0.312 0.192,-0.306C0.2,-0.3 0.209,-0.296 0.221,-0.294C0.233,-0.292 0.247,-0.291 0.263,-0.291C0.286,-0.291 0.305,-0.293 0.319,-0.297C0.333,-0.302 0.344,-0.306 0.352,-0.312L0.352,-0.532L0.49,-0.532L0.49,-0L0.352,-0L0.352,-0.21C0.346,-0.207 0.338,-0.205 0.328,-0.202Z" style="fill:white;fill-rule:nonzero;"/>
            </g>
            <g transform="matrix(71.0066,0,0,90.3026,1494.85,1862.6)">
                <path d="M0.6,-0L0.42,-0L0.264,-0.225L0.208,-0.168L0.208,-0L0.07,-0L0.07,-0.532L0.208,-0.532L0.208,-0.33L0.407,-0.532L0.591,-0.532L0.371,-0.311L0.6,-0Z" style="fill:white;fill-rule:nonzero;"/>
            </g>
            <g transform="matrix(71.0066,0,0,90.3026,1538.23,1862.6)">
                <path d="M0.407,-0L0.407,-0.321L0.405,-0.321L0.217,-0L0.066,-0L0.066,-0.532L0.204,-0.532L0.204,-0.204L0.206,-0.204L0.4,-0.532L0.545,-0.532L0.545,-0L0.407,-0Z" style="fill:white;fill-rule:nonzero;"/>
            </g>
            <g transform="matrix(71.0066,0,0,90.3026,1595.8,1862.6)">
                <path d="M0.285,-0.14L0.394,-0.532L0.542,-0.532L0.359,-0.009C0.348,0.022 0.339,0.048 0.331,0.071C0.322,0.094 0.314,0.113 0.305,0.13C0.297,0.146 0.288,0.16 0.279,0.17C0.27,0.181 0.259,0.189 0.247,0.195C0.234,0.201 0.22,0.206 0.203,0.208C0.187,0.211 0.167,0.212 0.144,0.212C0.135,0.212 0.126,0.212 0.118,0.211C0.11,0.211 0.101,0.21 0.09,0.209L0.09,0.097C0.095,0.098 0.102,0.098 0.11,0.099C0.118,0.1 0.125,0.1 0.131,0.1C0.146,0.1 0.158,0.097 0.168,0.092C0.178,0.086 0.186,0.08 0.192,0.072C0.198,0.064 0.202,0.056 0.205,0.048C0.208,0.04 0.209,0.033 0.209,0.028L0.014,-0.532L0.169,-0.532L0.283,-0.14L0.285,-0.14Z" style="fill:white;fill-rule:nonzero;"/>
            </g>
            <g transform="matrix(71.0066,0,0,90.3026,1635.29,1862.6)">
                <path d="M0.272,-0.42L0.27,-0.321C0.268,-0.265 0.264,-0.216 0.259,-0.174C0.253,-0.132 0.244,-0.097 0.232,-0.069C0.219,-0.041 0.202,-0.02 0.181,-0.005C0.16,0.009 0.132,0.016 0.099,0.016C0.083,0.016 0.07,0.015 0.058,0.013C0.046,0.012 0.037,0.009 0.029,0.006L0.029,-0.11C0.034,-0.108 0.04,-0.106 0.047,-0.104C0.054,-0.103 0.062,-0.102 0.072,-0.102C0.083,-0.102 0.092,-0.105 0.1,-0.112C0.108,-0.118 0.115,-0.129 0.121,-0.146C0.127,-0.163 0.132,-0.186 0.135,-0.216C0.138,-0.245 0.14,-0.284 0.141,-0.331L0.145,-0.532L0.573,-0.532L0.573,-0L0.436,-0L0.436,-0.42L0.272,-0.42Z" style="fill:white;fill-rule:nonzero;"/>
            </g>
            <g transform="matrix(71.0066,0,0,90.3026,1681.61,1862.6)">
                <path d="M0.407,-0L0.407,-0.321L0.405,-0.321L0.217,-0L0.066,-0L0.066,-0.532L0.204,-0.532L0.204,-0.204L0.206,-0.204L0.4,-0.532L0.545,-0.532L0.545,-0L0.407,-0Z" style="fill:white;fill-rule:nonzero;"/>
            </g>
            <g transform="matrix(71.0066,0,0,90.3026,1724.99,1862.6)">
                <path d="M0.328,-0.202C0.318,-0.199 0.307,-0.197 0.295,-0.194C0.282,-0.192 0.27,-0.19 0.257,-0.189C0.243,-0.188 0.231,-0.187 0.219,-0.187C0.188,-0.187 0.162,-0.19 0.138,-0.195C0.115,-0.2 0.095,-0.209 0.079,-0.221C0.063,-0.233 0.051,-0.249 0.043,-0.268C0.035,-0.288 0.031,-0.312 0.031,-0.34L0.031,-0.532L0.169,-0.532L0.169,-0.367C0.169,-0.352 0.171,-0.339 0.175,-0.33C0.178,-0.32 0.184,-0.312 0.192,-0.306C0.2,-0.3 0.209,-0.296 0.221,-0.294C0.233,-0.292 0.247,-0.291 0.263,-0.291C0.286,-0.291 0.305,-0.293 0.319,-0.297C0.333,-0.302 0.344,-0.306 0.352,-0.312L0.352,-0.532L0.49,-0.532L0.49,-0L0.352,-0L0.352,-0.21C0.346,-0.207 0.338,-0.205 0.328,-0.202Z" style="fill:white;fill-rule:nonzero;"/>
            </g>
            <g transform="matrix(71.0066,0,0,90.3026,1764.48,1862.6)">
                <path d="M0.407,-0.228L0.204,-0.228L0.204,-0L0.066,-0L0.066,-0.532L0.204,-0.532L0.204,-0.34L0.407,-0.34L0.407,-0.532L0.545,-0.532L0.545,-0L0.407,-0L0.407,-0.228Z" style="fill:white;fill-rule:nonzero;"/>
            </g>
            <g transform="matrix(71.0066,0,0,90.3026,1807.85,1862.6)">
                <path d="M0.407,-0L0.407,-0.321L0.405,-0.321L0.217,-0L0.066,-0L0.066,-0.532L0.204,-0.532L0.204,-0.204L0.206,-0.204L0.4,-0.532L0.545,-0.532L0.545,-0L0.407,-0Z" style="fill:white;fill-rule:nonzero;"/>
            </g>
            <g transform="matrix(71.0066,0,0,90.3026,1865.43,1862.6)">
                <path d="M0.6,-0L0.42,-0L0.264,-0.225L0.208,-0.168L0.208,-0L0.07,-0L0.07,-0.532L0.208,-0.532L0.208,-0.33L0.407,-0.532L0.591,-0.532L0.371,-0.311L0.6,-0Z" style="fill:white;fill-rule:nonzero;"/>
            </g>
            <g transform="matrix(71.0066,0,0,90.3026,1908.8,1862.6)">
                <path d="M0.193,-0.005C0.159,-0.019 0.131,-0.038 0.107,-0.063C0.084,-0.089 0.066,-0.118 0.053,-0.153C0.04,-0.187 0.034,-0.225 0.034,-0.266C0.034,-0.307 0.04,-0.345 0.053,-0.379C0.066,-0.414 0.084,-0.444 0.107,-0.469C0.131,-0.493 0.159,-0.513 0.193,-0.527C0.226,-0.541 0.264,-0.548 0.306,-0.548C0.349,-0.548 0.387,-0.541 0.421,-0.527C0.454,-0.513 0.483,-0.493 0.506,-0.469C0.529,-0.444 0.547,-0.414 0.56,-0.379C0.572,-0.345 0.578,-0.307 0.578,-0.266C0.578,-0.225 0.572,-0.187 0.56,-0.153C0.547,-0.118 0.529,-0.089 0.506,-0.063C0.483,-0.038 0.454,-0.019 0.421,-0.005C0.387,0.009 0.349,0.016 0.306,0.016C0.264,0.016 0.226,0.009 0.193,-0.005ZM0.185,-0.207C0.189,-0.187 0.196,-0.169 0.207,-0.154C0.217,-0.138 0.23,-0.126 0.246,-0.116C0.262,-0.107 0.282,-0.102 0.306,-0.102C0.331,-0.102 0.351,-0.107 0.368,-0.116C0.384,-0.125 0.397,-0.137 0.407,-0.153C0.417,-0.168 0.424,-0.185 0.428,-0.205C0.432,-0.225 0.434,-0.245 0.434,-0.266C0.434,-0.287 0.432,-0.307 0.428,-0.327C0.424,-0.347 0.417,-0.365 0.407,-0.38C0.397,-0.395 0.384,-0.407 0.368,-0.416C0.351,-0.426 0.331,-0.43 0.306,-0.43C0.282,-0.43 0.262,-0.425 0.246,-0.416C0.23,-0.407 0.217,-0.394 0.207,-0.379C0.196,-0.363 0.189,-0.346 0.185,-0.326C0.18,-0.306 0.178,-0.286 0.178,-0.266C0.178,-0.246 0.181,-0.226 0.185,-0.207Z" style="fill:white;fill-rule:nonzero;"/>
            </g>
            <g transform="matrix(71.0066,0,0,90.3026,1952.24,1862.6)">
                <path d="M0.48,-0.532L0.48,-0.42L0.319,-0.42L0.319,-0L0.181,-0L0.181,-0.42L0.02,-0.42L0.02,-0.532L0.48,-0.532Z" style="fill:white;fill-rule:nonzero;"/>
            </g>
            <g transform="matrix(71.0066,0,0,90.3026,1987.75,1862.6)">
                <path d="M0.6,-0L0.42,-0L0.264,-0.225L0.208,-0.168L0.208,-0L0.07,-0L0.07,-0.532L0.208,-0.532L0.208,-0.33L0.407,-0.532L0.591,-0.532L0.371,-0.311L0.6,-0Z" style="fill:white;fill-rule:nonzero;"/>
            </g>
            <g transform="matrix(71.0066,0,0,90.3026,2031.12,1862.6)">
                <path d="M0.407,-0L0.407,-0.321L0.405,-0.321L0.217,-0L0.066,-0L0.066,-0.532L0.204,-0.532L0.204,-0.204L0.206,-0.204L0.4,-0.532L0.545,-0.532L0.545,-0L0.407,-0Z" style="fill:white;fill-rule:nonzero;"/>
            </g>
            <g transform="matrix(71.0066,0,0,90.3026,2088.7,1862.6)">
                <path d="M0.284,-0.102C0.3,-0.102 0.314,-0.105 0.326,-0.112C0.337,-0.118 0.347,-0.126 0.355,-0.135C0.363,-0.145 0.369,-0.155 0.372,-0.166C0.376,-0.176 0.378,-0.186 0.378,-0.195L0.522,-0.195C0.522,-0.186 0.52,-0.175 0.517,-0.161C0.514,-0.147 0.509,-0.132 0.502,-0.116C0.495,-0.101 0.485,-0.085 0.473,-0.069C0.462,-0.053 0.447,-0.039 0.429,-0.027C0.411,-0.014 0.39,-0.004 0.367,0.004C0.343,0.012 0.315,0.016 0.284,0.016C0.243,0.016 0.208,0.01 0.177,-0.002C0.145,-0.015 0.119,-0.033 0.098,-0.057C0.077,-0.081 0.061,-0.11 0.051,-0.146C0.04,-0.181 0.034,-0.221 0.034,-0.266C0.034,-0.311 0.04,-0.351 0.052,-0.386C0.064,-0.421 0.081,-0.451 0.103,-0.475C0.124,-0.499 0.151,-0.517 0.181,-0.529C0.212,-0.542 0.246,-0.548 0.284,-0.548C0.3,-0.548 0.317,-0.547 0.335,-0.544C0.352,-0.541 0.369,-0.537 0.386,-0.531C0.403,-0.524 0.419,-0.516 0.435,-0.506C0.45,-0.496 0.464,-0.483 0.476,-0.468C0.489,-0.453 0.499,-0.435 0.507,-0.415C0.515,-0.394 0.52,-0.371 0.522,-0.344L0.378,-0.344C0.375,-0.358 0.372,-0.371 0.367,-0.381C0.363,-0.392 0.357,-0.401 0.349,-0.408C0.342,-0.415 0.333,-0.421 0.323,-0.425C0.312,-0.428 0.299,-0.43 0.284,-0.43C0.261,-0.43 0.243,-0.425 0.229,-0.414C0.215,-0.403 0.204,-0.39 0.197,-0.374C0.189,-0.357 0.184,-0.34 0.182,-0.32C0.179,-0.301 0.178,-0.283 0.178,-0.266C0.178,-0.249 0.179,-0.23 0.181,-0.211C0.183,-0.191 0.188,-0.174 0.195,-0.157C0.202,-0.141 0.213,-0.128 0.227,-0.118C0.241,-0.107 0.26,-0.102 0.284,-0.102Z" style="fill:white;fill-rule:nonzero;"/>
            </g>
            <g transform="matrix(71.0066,0,0,90.3026,2128.19,1862.6)">
                <path d="M0.309,-0.332C0.314,-0.333 0.319,-0.334 0.325,-0.335C0.331,-0.336 0.336,-0.338 0.341,-0.342C0.346,-0.345 0.35,-0.349 0.353,-0.354C0.356,-0.36 0.358,-0.367 0.358,-0.376C0.358,-0.385 0.357,-0.393 0.354,-0.4C0.351,-0.407 0.346,-0.414 0.34,-0.419C0.333,-0.425 0.325,-0.429 0.314,-0.432C0.303,-0.435 0.289,-0.436 0.273,-0.436C0.254,-0.436 0.24,-0.434 0.228,-0.43C0.217,-0.427 0.208,-0.421 0.202,-0.415C0.195,-0.408 0.19,-0.4 0.188,-0.391C0.185,-0.382 0.182,-0.373 0.181,-0.363L0.043,-0.363C0.043,-0.369 0.044,-0.378 0.046,-0.39C0.048,-0.401 0.052,-0.414 0.058,-0.428C0.064,-0.441 0.072,-0.455 0.082,-0.469C0.092,-0.483 0.106,-0.496 0.122,-0.508C0.139,-0.519 0.16,-0.529 0.184,-0.536C0.208,-0.544 0.236,-0.548 0.27,-0.548C0.318,-0.548 0.356,-0.543 0.385,-0.533C0.415,-0.524 0.438,-0.511 0.454,-0.496C0.471,-0.48 0.482,-0.463 0.488,-0.444C0.493,-0.425 0.496,-0.406 0.496,-0.387L0.496,-0.105C0.496,-0.089 0.497,-0.076 0.499,-0.066C0.501,-0.055 0.503,-0.047 0.506,-0.041C0.509,-0.035 0.512,-0.031 0.516,-0.028C0.52,-0.025 0.524,-0.023 0.528,-0.022L0.528,-0L0.375,-0C0.372,-0.006 0.37,-0.014 0.366,-0.025C0.363,-0.035 0.362,-0.047 0.362,-0.062C0.351,-0.051 0.341,-0.041 0.33,-0.031C0.32,-0.022 0.309,-0.014 0.296,-0.007C0.283,0 0.269,0.006 0.252,0.01C0.235,0.014 0.215,0.016 0.192,0.016C0.168,0.016 0.146,0.013 0.126,0.006C0.106,-0.001 0.089,-0.012 0.074,-0.025C0.06,-0.039 0.048,-0.056 0.04,-0.077C0.032,-0.097 0.028,-0.121 0.028,-0.148C0.028,-0.17 0.031,-0.19 0.038,-0.209C0.045,-0.227 0.055,-0.244 0.067,-0.258C0.08,-0.272 0.095,-0.284 0.113,-0.293C0.131,-0.302 0.151,-0.309 0.174,-0.312L0.309,-0.332ZM0.208,-0.086C0.217,-0.083 0.226,-0.082 0.236,-0.082C0.241,-0.082 0.248,-0.083 0.256,-0.084C0.264,-0.085 0.273,-0.087 0.282,-0.09C0.291,-0.094 0.3,-0.098 0.309,-0.104C0.318,-0.109 0.326,-0.117 0.333,-0.126C0.341,-0.135 0.347,-0.146 0.351,-0.159C0.356,-0.173 0.358,-0.188 0.358,-0.206L0.358,-0.26C0.349,-0.255 0.341,-0.251 0.333,-0.247C0.324,-0.244 0.313,-0.24 0.299,-0.238L0.262,-0.231C0.246,-0.228 0.232,-0.225 0.22,-0.221C0.208,-0.217 0.198,-0.212 0.19,-0.205C0.182,-0.199 0.176,-0.191 0.172,-0.182C0.168,-0.173 0.166,-0.162 0.166,-0.148C0.166,-0.137 0.168,-0.127 0.171,-0.118C0.175,-0.11 0.18,-0.103 0.186,-0.098C0.193,-0.093 0.2,-0.089 0.208,-0.086Z" style="fill:white;fill-rule:nonzero;"/>
            </g>
            <g transform="matrix(71.0066,0,0,90.3026,2181.88,1862.6)">
                <path d="M0.6,-0L0.42,-0L0.264,-0.225L0.208,-0.168L0.208,-0L0.07,-0L0.07,-0.532L0.208,-0.532L0.208,-0.33L0.407,-0.532L0.591,-0.532L0.371,-0.311L0.6,-0Z" style="fill:white;fill-rule:nonzero;"/>
            </g>
            <g transform="matrix(71.0066,0,0,90.3026,2225.25,1862.6)">
                <path d="M0.309,-0.332C0.314,-0.333 0.319,-0.334 0.325,-0.335C0.331,-0.336 0.336,-0.338 0.341,-0.342C0.346,-0.345 0.35,-0.349 0.353,-0.354C0.356,-0.36 0.358,-0.367 0.358,-0.376C0.358,-0.385 0.357,-0.393 0.354,-0.4C0.351,-0.407 0.346,-0.414 0.34,-0.419C0.333,-0.425 0.325,-0.429 0.314,-0.432C0.303,-0.435 0.289,-0.436 0.273,-0.436C0.254,-0.436 0.24,-0.434 0.228,-0.43C0.217,-0.427 0.208,-0.421 0.202,-0.415C0.195,-0.408 0.19,-0.4 0.188,-0.391C0.185,-0.382 0.182,-0.373 0.181,-0.363L0.043,-0.363C0.043,-0.369 0.044,-0.378 0.046,-0.39C0.048,-0.401 0.052,-0.414 0.058,-0.428C0.064,-0.441 0.072,-0.455 0.082,-0.469C0.092,-0.483 0.106,-0.496 0.122,-0.508C0.139,-0.519 0.16,-0.529 0.184,-0.536C0.208,-0.544 0.236,-0.548 0.27,-0.548C0.318,-0.548 0.356,-0.543 0.385,-0.533C0.415,-0.524 0.438,-0.511 0.454,-0.496C0.471,-0.48 0.482,-0.463 0.488,-0.444C0.493,-0.425 0.496,-0.406 0.496,-0.387L0.496,-0.105C0.496,-0.089 0.497,-0.076 0.499,-0.066C0.501,-0.055 0.503,-0.047 0.506,-0.041C0.509,-0.035 0.512,-0.031 0.516,-0.028C0.52,-0.025 0.524,-0.023 0.528,-0.022L0.528,-0L0.375,-0C0.372,-0.006 0.37,-0.014 0.366,-0.025C0.363,-0.035 0.362,-0.047 0.362,-0.062C0.351,-0.051 0.341,-0.041 0.33,-0.031C0.32,-0.022 0.309,-0.014 0.296,-0.007C0.283,0 0.269,0.006 0.252,0.01C0.235,0.014 0.215,0.016 0.192,0.016C0.168,0.016 0.146,0.013 0.126,0.006C0.106,-0.001 0.089,-0.012 0.074,-0.025C0.06,-0.039 0.048,-0.056 0.04,-0.077C0.032,-0.097 0.028,-0.121 0.028,-0.148C0.028,-0.17 0.031,-0.19 0.038,-0.209C0.045,-0.227 0.055,-0.244 0.067,-0.258C0.08,-0.272 0.095,-0.284 0.113,-0.293C0.131,-0.302 0.151,-0.309 0.174,-0.312L0.309,-0.332ZM0.208,-0.086C0.217,-0.083 0.226,-0.082 0.236,-0.082C0.241,-0.082 0.248,-0.083 0.256,-0.084C0.264,-0.085 0.273,-0.087 0.282,-0.09C0.291,-0.094 0.3,-0.098 0.309,-0.104C0.318,-0.109 0.326,-0.117 0.333,-0.126C0.341,-0.135 0.347,-0.146 0.351,-0.159C0.356,-0.173 0.358,-0.188 0.358,-0.206L0.358,-0.26C0.349,-0.255 0.341,-0.251 0.333,-0.247C0.324,-0.244 0.313,-0.24 0.299,-0.238L0.262,-0.231C0.246,-0.228 0.232,-0.225 0.22,-0.221C0.208,-0.217 0.198,-0.212 0.19,-0.205C0.182,-0.199 0.176,-0.191 0.172,-0.182C0.168,-0.173 0.166,-0.162 0.166,-0.148C0.166,-0.137 0.168,-0.127 0.171,-0.118C0.175,-0.11 0.18,-0.103 0.186,-0.098C0.193,-0.093 0.2,-0.089 0.208,-0.086Z" style="fill:white;fill-rule:nonzero;"/>
            </g>
            <g transform="matrix(71.0066,0,0,90.3026,2264.74,1862.6)">
                <path d="M0.284,-0.102C0.3,-0.102 0.314,-0.105 0.326,-0.112C0.337,-0.118 0.347,-0.126 0.355,-0.135C0.363,-0.145 0.369,-0.155 0.372,-0.166C0.376,-0.176 0.378,-0.186 0.378,-0.195L0.522,-0.195C0.522,-0.186 0.52,-0.175 0.517,-0.161C0.514,-0.147 0.509,-0.132 0.502,-0.116C0.495,-0.101 0.485,-0.085 0.473,-0.069C0.462,-0.053 0.447,-0.039 0.429,-0.027C0.411,-0.014 0.39,-0.004 0.367,0.004C0.343,0.012 0.315,0.016 0.284,0.016C0.243,0.016 0.208,0.01 0.177,-0.002C0.145,-0.015 0.119,-0.033 0.098,-0.057C0.077,-0.081 0.061,-0.11 0.051,-0.146C0.04,-0.181 0.034,-0.221 0.034,-0.266C0.034,-0.311 0.04,-0.351 0.052,-0.386C0.064,-0.421 0.081,-0.451 0.103,-0.475C0.124,-0.499 0.151,-0.517 0.181,-0.529C0.212,-0.542 0.246,-0.548 0.284,-0.548C0.3,-0.548 0.317,-0.547 0.335,-0.544C0.352,-0.541 0.369,-0.537 0.386,-0.531C0.403,-0.524 0.419,-0.516 0.435,-0.506C0.45,-0.496 0.464,-0.483 0.476,-0.468C0.489,-0.453 0.499,-0.435 0.507,-0.415C0.515,-0.394 0.52,-0.371 0.522,-0.344L0.378,-0.344C0.375,-0.358 0.372,-0.371 0.367,-0.381C0.363,-0.392 0.357,-0.401 0.349,-0.408C0.342,-0.415 0.333,-0.421 0.323,-0.425C0.312,-0.428 0.299,-0.43 0.284,-0.43C0.261,-0.43 0.243,-0.425 0.229,-0.414C0.215,-0.403 0.204,-0.39 0.197,-0.374C0.189,-0.357 0.184,-0.34 0.182,-0.32C0.179,-0.301 0.178,-0.283 0.178,-0.266C0.178,-0.249 0.179,-0.23 0.181,-0.211C0.183,-0.191 0.188,-0.174 0.195,-0.157C0.202,-0.141 0.213,-0.128 0.227,-0.118C0.241,-0.107 0.26,-0.102 0.284,-0.102Z" style="fill:white;fill-rule:nonzero;"/>
            </g>
            <g transform="matrix(71.0066,0,0,90.3026,2304.23,1862.6)">
                <path d="M0.48,-0.532L0.48,-0.42L0.319,-0.42L0.319,-0L0.181,-0L0.181,-0.42L0.02,-0.42L0.02,-0.532L0.48,-0.532Z" style="fill:white;fill-rule:nonzero;"/>
            </g>
            <g transform="matrix(71.0066,0,0,90.3026,2339.74,1862.6)">
                <path d="M0.26,-0.526C0.273,-0.533 0.287,-0.539 0.302,-0.542C0.318,-0.546 0.335,-0.548 0.355,-0.548C0.371,-0.548 0.388,-0.546 0.405,-0.542C0.423,-0.538 0.439,-0.532 0.456,-0.523C0.472,-0.515 0.488,-0.503 0.502,-0.49C0.517,-0.476 0.53,-0.459 0.541,-0.438C0.552,-0.418 0.561,-0.395 0.567,-0.368C0.574,-0.341 0.577,-0.31 0.577,-0.276C0.577,-0.233 0.573,-0.194 0.563,-0.158C0.554,-0.122 0.54,-0.091 0.521,-0.065C0.503,-0.04 0.479,-0.02 0.45,-0.005C0.422,0.009 0.389,0.016 0.35,0.016C0.337,0.016 0.323,0.015 0.31,0.012C0.296,0.01 0.283,0.005 0.27,-0.001C0.257,-0.007 0.244,-0.016 0.233,-0.026C0.221,-0.037 0.211,-0.05 0.202,-0.066L0.2,-0.066L0.2,0.206L0.062,0.206L0.062,-0.532L0.194,-0.532L0.194,-0.456L0.196,-0.456C0.205,-0.472 0.215,-0.486 0.226,-0.497C0.236,-0.509 0.248,-0.518 0.26,-0.526ZM0.238,-0.131C0.247,-0.123 0.258,-0.115 0.27,-0.11C0.282,-0.105 0.297,-0.102 0.314,-0.102C0.331,-0.102 0.346,-0.105 0.358,-0.11C0.37,-0.115 0.381,-0.123 0.39,-0.131C0.398,-0.14 0.406,-0.15 0.411,-0.162C0.417,-0.173 0.422,-0.185 0.425,-0.197C0.428,-0.209 0.43,-0.221 0.431,-0.233C0.433,-0.245 0.433,-0.256 0.433,-0.266C0.433,-0.285 0.431,-0.303 0.427,-0.322C0.423,-0.341 0.416,-0.358 0.406,-0.373C0.397,-0.388 0.385,-0.4 0.37,-0.41C0.354,-0.419 0.336,-0.424 0.314,-0.424C0.292,-0.424 0.273,-0.419 0.258,-0.41C0.243,-0.4 0.231,-0.388 0.221,-0.373C0.212,-0.358 0.205,-0.341 0.201,-0.322C0.197,-0.303 0.195,-0.285 0.195,-0.266C0.195,-0.256 0.195,-0.245 0.197,-0.233C0.198,-0.221 0.2,-0.209 0.203,-0.197C0.206,-0.185 0.211,-0.173 0.217,-0.162C0.222,-0.15 0.229,-0.14 0.238,-0.131Z" style="fill:white;fill-rule:nonzero;"/>
            </g>
            <g transform="matrix(71.0066,0,0,90.3026,2383.11,1862.6)">
                <path d="M0.407,-0L0.407,-0.321L0.405,-0.321L0.217,-0L0.066,-0L0.066,-0.532L0.204,-0.532L0.204,-0.204L0.206,-0.204L0.4,-0.532L0.545,-0.532L0.545,-0L0.407,-0Z" style="fill:white;fill-rule:nonzero;"/>
            </g>
            <g transform="matrix(71.0066,0,0,90.3026,2426.48,1862.6)">
                <path d="M0.26,-0.526C0.273,-0.533 0.287,-0.539 0.302,-0.542C0.318,-0.546 0.335,-0.548 0.355,-0.548C0.371,-0.548 0.388,-0.546 0.405,-0.542C0.423,-0.538 0.439,-0.532 0.456,-0.523C0.472,-0.515 0.488,-0.503 0.502,-0.49C0.517,-0.476 0.53,-0.459 0.541,-0.438C0.552,-0.418 0.561,-0.395 0.567,-0.368C0.574,-0.341 0.577,-0.31 0.577,-0.276C0.577,-0.233 0.573,-0.194 0.563,-0.158C0.554,-0.122 0.54,-0.091 0.521,-0.065C0.503,-0.04 0.479,-0.02 0.45,-0.005C0.422,0.009 0.389,0.016 0.35,0.016C0.337,0.016 0.323,0.015 0.31,0.012C0.296,0.01 0.283,0.005 0.27,-0.001C0.257,-0.007 0.244,-0.016 0.233,-0.026C0.221,-0.037 0.211,-0.05 0.202,-0.066L0.2,-0.066L0.2,0.206L0.062,0.206L0.062,-0.532L0.194,-0.532L0.194,-0.456L0.196,-0.456C0.205,-0.472 0.215,-0.486 0.226,-0.497C0.236,-0.509 0.248,-0.518 0.26,-0.526ZM0.238,-0.131C0.247,-0.123 0.258,-0.115 0.27,-0.11C0.282,-0.105 0.297,-0.102 0.314,-0.102C0.331,-0.102 0.346,-0.105 0.358,-0.11C0.37,-0.115 0.381,-0.123 0.39,-0.131C0.398,-0.14 0.406,-0.15 0.411,-0.162C0.417,-0.173 0.422,-0.185 0.425,-0.197C0.428,-0.209 0.43,-0.221 0.431,-0.233C0.433,-0.245 0.433,-0.256 0.433,-0.266C0.433,-0.285 0.431,-0.303 0.427,-0.322C0.423,-0.341 0.416,-0.358 0.406,-0.373C0.397,-0.388 0.385,-0.4 0.37,-0.41C0.354,-0.419 0.336,-0.424 0.314,-0.424C0.292,-0.424 0.273,-0.419 0.258,-0.41C0.243,-0.4 0.231,-0.388 0.221,-0.373C0.212,-0.358 0.205,-0.341 0.201,-0.322C0.197,-0.303 0.195,-0.285 0.195,-0.266C0.195,-0.256 0.195,-0.245 0.197,-0.233C0.198,-0.221 0.2,-0.209 0.203,-0.197C0.206,-0.185 0.211,-0.173 0.217,-0.162C0.222,-0.15 0.229,-0.14 0.238,-0.131Z" style="fill:white;fill-rule:nonzero;"/>
            </g>
            <g transform="matrix(71.0066,0,0,90.3026,2469.86,1862.6)">
                <path d="M0.309,-0.332C0.314,-0.333 0.319,-0.334 0.325,-0.335C0.331,-0.336 0.336,-0.338 0.341,-0.342C0.346,-0.345 0.35,-0.349 0.353,-0.354C0.356,-0.36 0.358,-0.367 0.358,-0.376C0.358,-0.385 0.357,-0.393 0.354,-0.4C0.351,-0.407 0.346,-0.414 0.34,-0.419C0.333,-0.425 0.325,-0.429 0.314,-0.432C0.303,-0.435 0.289,-0.436 0.273,-0.436C0.254,-0.436 0.24,-0.434 0.228,-0.43C0.217,-0.427 0.208,-0.421 0.202,-0.415C0.195,-0.408 0.19,-0.4 0.188,-0.391C0.185,-0.382 0.182,-0.373 0.181,-0.363L0.043,-0.363C0.043,-0.369 0.044,-0.378 0.046,-0.39C0.048,-0.401 0.052,-0.414 0.058,-0.428C0.064,-0.441 0.072,-0.455 0.082,-0.469C0.092,-0.483 0.106,-0.496 0.122,-0.508C0.139,-0.519 0.16,-0.529 0.184,-0.536C0.208,-0.544 0.236,-0.548 0.27,-0.548C0.318,-0.548 0.356,-0.543 0.385,-0.533C0.415,-0.524 0.438,-0.511 0.454,-0.496C0.471,-0.48 0.482,-0.463 0.488,-0.444C0.493,-0.425 0.496,-0.406 0.496,-0.387L0.496,-0.105C0.496,-0.089 0.497,-0.076 0.499,-0.066C0.501,-0.055 0.503,-0.047 0.506,-0.041C0.509,-0.035 0.512,-0.031 0.516,-0.028C0.52,-0.025 0.524,-0.023 0.528,-0.022L0.528,-0L0.375,-0C0.372,-0.006 0.37,-0.014 0.366,-0.025C0.363,-0.035 0.362,-0.047 0.362,-0.062C0.351,-0.051 0.341,-0.041 0.33,-0.031C0.32,-0.022 0.309,-0.014 0.296,-0.007C0.283,0 0.269,0.006 0.252,0.01C0.235,0.014 0.215,0.016 0.192,0.016C0.168,0.016 0.146,0.013 0.126,0.006C0.106,-0.001 0.089,-0.012 0.074,-0.025C0.06,-0.039 0.048,-0.056 0.04,-0.077C0.032,-0.097 0.028,-0.121 0.028,-0.148C0.028,-0.17 0.031,-0.19 0.038,-0.209C0.045,-0.227 0.055,-0.244 0.067,-0.258C0.08,-0.272 0.095,-0.284 0.113,-0.293C0.131,-0.302 0.151,-0.309 0.174,-0.312L0.309,-0.332ZM0.208,-0.086C0.217,-0.083 0.226,-0.082 0.236,-0.082C0.241,-0.082 0.248,-0.083 0.256,-0.084C0.264,-0.085 0.273,-0.087 0.282,-0.09C0.291,-0.094 0.3,-0.098 0.309,-0.104C0.318,-0.109 0.326,-0.117 0.333,-0.126C0.341,-0.135 0.347,-0.146 0.351,-0.159C0.356,-0.173 0.358,-0.188 0.358,-0.206L0.358,-0.26C0.349,-0.255 0.341,-0.251 0.333,-0.247C0.324,-0.244 0.313,-0.24 0.299,-0.238L0.262,-0.231C0.246,-0.228 0.232,-0.225 0.22,-0.221C0.208,-0.217 0.198,-0.212 0.19,-0.205C0.182,-0.199 0.176,-0.191 0.172,-0.182C0.168,-0.173 0.166,-0.162 0.166,-0.148C0.166,-0.137 0.168,-0.127 0.171,-0.118C0.175,-0.11 0.18,-0.103 0.186,-0.098C0.193,-0.093 0.2,-0.089 0.208,-0.086Z" style="fill:white;fill-rule:nonzero;"/>
            </g>
            <g transform="matrix(71.0066,0,0,90.3026,2509.35,1862.6)">
                <path d="M0.407,-0.228L0.204,-0.228L0.204,-0L0.066,-0L0.066,-0.532L0.204,-0.532L0.204,-0.34L0.407,-0.34L0.407,-0.532L0.545,-0.532L0.545,-0L0.407,-0L0.407,-0.228Z" style="fill:white;fill-rule:nonzero;"/>
            </g>
            <g transform="matrix(71.0066,0,0,90.3026,2552.72,1862.6)">
                <path d="M0.407,-0L0.407,-0.321L0.405,-0.321L0.217,-0L0.066,-0L0.066,-0.532L0.204,-0.532L0.204,-0.204L0.206,-0.204L0.4,-0.532L0.545,-0.532L0.545,-0L0.407,-0Z" style="fill:white;fill-rule:nonzero;"/>
            </g>
            <g transform="matrix(71.0066,0,0,90.3026,2596.09,1862.6)">
                <path d="M0.22,-0.081C0.22,-0.056 0.212,-0.034 0.196,-0.017C0.18,0 0.16,0.009 0.135,0.009C0.11,0.009 0.089,0 0.074,-0.017C0.058,-0.034 0.05,-0.056 0.05,-0.081C0.05,-0.106 0.058,-0.127 0.074,-0.145C0.089,-0.163 0.11,-0.172 0.135,-0.172C0.16,-0.172 0.18,-0.163 0.196,-0.145C0.212,-0.127 0.22,-0.106 0.22,-0.081Z" style="fill:white;fill-rule:nonzero;"/>
            </g>
            <g transform="matrix(71.0066,0,0,90.3026,1312.42,1963.52)">
                <path d="M0.452,-0.434C0.469,-0.433 0.487,-0.431 0.506,-0.427C0.525,-0.423 0.544,-0.417 0.563,-0.408C0.583,-0.399 0.6,-0.386 0.616,-0.37C0.631,-0.354 0.644,-0.334 0.654,-0.309C0.664,-0.284 0.668,-0.253 0.668,-0.217C0.668,-0.181 0.664,-0.15 0.654,-0.125C0.644,-0.101 0.632,-0.08 0.616,-0.064C0.601,-0.048 0.584,-0.036 0.566,-0.027C0.547,-0.018 0.529,-0.012 0.512,-0.008C0.495,-0.004 0.479,-0.002 0.464,-0.001C0.45,-0 0.439,-0 0.432,-0L0.082,-0L0.082,-0.718L0.604,-0.718L0.604,-0.594L0.232,-0.594L0.232,-0.435L0.41,-0.435C0.421,-0.435 0.435,-0.435 0.452,-0.434ZM0.232,-0.124L0.394,-0.124C0.408,-0.124 0.422,-0.125 0.436,-0.127C0.451,-0.129 0.464,-0.133 0.476,-0.14C0.489,-0.146 0.499,-0.156 0.506,-0.169C0.514,-0.182 0.518,-0.199 0.518,-0.22C0.518,-0.243 0.514,-0.26 0.507,-0.273C0.499,-0.286 0.489,-0.296 0.477,-0.302C0.464,-0.309 0.45,-0.313 0.435,-0.314C0.419,-0.316 0.404,-0.317 0.388,-0.317L0.232,-0.317L0.232,-0.124Z" style="fill:white;fill-rule:nonzero;"/>
            </g>
            <g transform="matrix(71.0066,0,0,90.3026,1363.35,1963.52)">
                <path d="M0.183,0C0.151,-0.01 0.124,-0.027 0.101,-0.05C0.078,-0.073 0.059,-0.103 0.046,-0.139C0.033,-0.176 0.026,-0.22 0.026,-0.272C0.026,-0.308 0.031,-0.343 0.04,-0.376C0.05,-0.41 0.065,-0.439 0.085,-0.464C0.106,-0.49 0.132,-0.51 0.163,-0.525C0.195,-0.54 0.233,-0.548 0.278,-0.548C0.325,-0.548 0.365,-0.54 0.397,-0.525C0.429,-0.509 0.455,-0.487 0.475,-0.459C0.495,-0.431 0.509,-0.396 0.517,-0.356C0.526,-0.316 0.53,-0.272 0.53,-0.223L0.165,-0.223C0.165,-0.218 0.166,-0.212 0.167,-0.204C0.167,-0.195 0.169,-0.187 0.172,-0.177C0.175,-0.168 0.18,-0.158 0.185,-0.149C0.191,-0.139 0.198,-0.13 0.207,-0.123C0.217,-0.115 0.228,-0.108 0.241,-0.104C0.255,-0.099 0.271,-0.096 0.29,-0.096C0.3,-0.096 0.309,-0.098 0.319,-0.1C0.329,-0.103 0.338,-0.107 0.346,-0.113C0.354,-0.118 0.361,-0.124 0.367,-0.132C0.373,-0.14 0.377,-0.148 0.38,-0.158L0.523,-0.158C0.523,-0.148 0.521,-0.137 0.517,-0.125C0.512,-0.112 0.506,-0.1 0.497,-0.087C0.489,-0.074 0.478,-0.061 0.465,-0.049C0.452,-0.036 0.436,-0.025 0.418,-0.016C0.401,-0.006 0.38,0.001 0.358,0.007C0.335,0.013 0.31,0.016 0.282,0.016C0.247,0.016 0.214,0.011 0.183,0ZM0.207,-0.411C0.196,-0.402 0.187,-0.389 0.18,-0.374C0.173,-0.358 0.17,-0.338 0.17,-0.315L0.386,-0.315C0.386,-0.338 0.383,-0.358 0.376,-0.374C0.369,-0.389 0.36,-0.402 0.349,-0.411C0.339,-0.42 0.327,-0.427 0.314,-0.43C0.302,-0.434 0.29,-0.436 0.278,-0.436C0.266,-0.436 0.254,-0.434 0.242,-0.43C0.229,-0.427 0.217,-0.42 0.207,-0.411Z" style="fill:white;fill-rule:nonzero;"/>
            </g>
            <g transform="matrix(71.0066,0,0,90.3026,1402.84,1963.52)">
                <path d="M0.184,-0.323L0.237,-0.323C0.268,-0.323 0.29,-0.329 0.302,-0.339C0.315,-0.35 0.322,-0.366 0.322,-0.386C0.322,-0.398 0.32,-0.408 0.316,-0.417C0.312,-0.425 0.307,-0.431 0.301,-0.436C0.294,-0.441 0.286,-0.445 0.277,-0.447C0.268,-0.449 0.258,-0.45 0.247,-0.45C0.223,-0.45 0.203,-0.445 0.188,-0.433C0.173,-0.422 0.165,-0.406 0.165,-0.385L0.035,-0.385C0.035,-0.414 0.041,-0.439 0.053,-0.46C0.065,-0.48 0.08,-0.497 0.1,-0.51C0.12,-0.523 0.143,-0.533 0.17,-0.539C0.197,-0.545 0.227,-0.548 0.258,-0.548C0.293,-0.548 0.323,-0.544 0.349,-0.535C0.374,-0.527 0.395,-0.515 0.412,-0.501C0.428,-0.487 0.44,-0.471 0.448,-0.453C0.456,-0.435 0.46,-0.417 0.46,-0.398C0.46,-0.382 0.458,-0.368 0.453,-0.356C0.449,-0.344 0.442,-0.333 0.435,-0.324C0.427,-0.316 0.418,-0.308 0.407,-0.302C0.397,-0.296 0.387,-0.292 0.375,-0.289L0.375,-0.287C0.394,-0.284 0.41,-0.279 0.423,-0.271C0.436,-0.263 0.446,-0.253 0.455,-0.242C0.463,-0.231 0.469,-0.219 0.472,-0.206C0.476,-0.193 0.478,-0.18 0.478,-0.167C0.478,-0.134 0.472,-0.106 0.458,-0.083C0.445,-0.059 0.428,-0.041 0.407,-0.026C0.386,-0.011 0.363,-0.001 0.337,0.006C0.31,0.013 0.284,0.016 0.258,0.016C0.223,0.016 0.192,0.013 0.163,0.007C0.134,0 0.109,-0.01 0.089,-0.025C0.068,-0.039 0.052,-0.058 0.04,-0.081C0.028,-0.105 0.022,-0.133 0.022,-0.167L0.154,-0.167C0.154,-0.155 0.156,-0.143 0.161,-0.133C0.165,-0.122 0.172,-0.113 0.18,-0.106C0.188,-0.098 0.198,-0.093 0.209,-0.088C0.22,-0.084 0.233,-0.082 0.247,-0.082C0.264,-0.082 0.278,-0.085 0.289,-0.09C0.301,-0.095 0.309,-0.102 0.316,-0.11C0.322,-0.118 0.327,-0.127 0.33,-0.136C0.333,-0.146 0.334,-0.154 0.334,-0.162C0.334,-0.188 0.327,-0.205 0.313,-0.216C0.299,-0.226 0.277,-0.231 0.247,-0.231L0.184,-0.231L0.184,-0.323Z" style="fill:white;fill-rule:nonzero;"/>
            </g>
            <g transform="matrix(71.0066,0,0,90.3026,1452.55,1963.52)">
                <path d="M0.407,-0.228L0.204,-0.228L0.204,-0L0.066,-0L0.066,-0.532L0.204,-0.532L0.204,-0.34L0.407,-0.34L0.407,-0.532L0.545,-0.532L0.545,-0L0.407,-0L0.407,-0.228Z" style="fill:white;fill-rule:nonzero;"/>
            </g>
            <g transform="matrix(71.0066,0,0,90.3026,1495.92,1963.52)">
                <path d="M0.193,-0.005C0.159,-0.019 0.131,-0.038 0.107,-0.063C0.084,-0.089 0.066,-0.118 0.053,-0.153C0.04,-0.187 0.034,-0.225 0.034,-0.266C0.034,-0.307 0.04,-0.345 0.053,-0.379C0.066,-0.414 0.084,-0.444 0.107,-0.469C0.131,-0.493 0.159,-0.513 0.193,-0.527C0.226,-0.541 0.264,-0.548 0.306,-0.548C0.349,-0.548 0.387,-0.541 0.421,-0.527C0.454,-0.513 0.483,-0.493 0.506,-0.469C0.529,-0.444 0.547,-0.414 0.56,-0.379C0.572,-0.345 0.578,-0.307 0.578,-0.266C0.578,-0.225 0.572,-0.187 0.56,-0.153C0.547,-0.118 0.529,-0.089 0.506,-0.063C0.483,-0.038 0.454,-0.019 0.421,-0.005C0.387,0.009 0.349,0.016 0.306,0.016C0.264,0.016 0.226,0.009 0.193,-0.005ZM0.185,-0.207C0.189,-0.187 0.196,-0.169 0.207,-0.154C0.217,-0.138 0.23,-0.126 0.246,-0.116C0.262,-0.107 0.282,-0.102 0.306,-0.102C0.331,-0.102 0.351,-0.107 0.368,-0.116C0.384,-0.125 0.397,-0.137 0.407,-0.153C0.417,-0.168 0.424,-0.185 0.428,-0.205C0.432,-0.225 0.434,-0.245 0.434,-0.266C0.434,-0.287 0.432,-0.307 0.428,-0.327C0.424,-0.347 0.417,-0.365 0.407,-0.38C0.397,-0.395 0.384,-0.407 0.368,-0.416C0.351,-0.426 0.331,-0.43 0.306,-0.43C0.282,-0.43 0.262,-0.425 0.246,-0.416C0.23,-0.407 0.217,-0.394 0.207,-0.379C0.196,-0.363 0.189,-0.346 0.185,-0.326C0.18,-0.306 0.178,-0.286 0.178,-0.266C0.178,-0.246 0.181,-0.226 0.185,-0.207Z" style="fill:white;fill-rule:nonzero;"/>
            </g>
            <g transform="matrix(71.0066,0,0,90.3026,1539.37,1963.52)">
                <path d="M0.368,-0L0.07,-0L0.07,-0.532L0.345,-0.532C0.37,-0.532 0.393,-0.53 0.416,-0.526C0.438,-0.522 0.458,-0.514 0.476,-0.504C0.493,-0.493 0.507,-0.479 0.517,-0.461C0.527,-0.443 0.532,-0.42 0.532,-0.392C0.532,-0.376 0.531,-0.362 0.527,-0.351C0.524,-0.339 0.519,-0.329 0.513,-0.321C0.507,-0.312 0.501,-0.305 0.493,-0.3C0.485,-0.294 0.477,-0.289 0.469,-0.285C0.496,-0.276 0.516,-0.261 0.53,-0.24C0.544,-0.219 0.551,-0.195 0.551,-0.166C0.551,-0.141 0.547,-0.118 0.538,-0.098C0.53,-0.078 0.517,-0.06 0.502,-0.046C0.486,-0.031 0.467,-0.02 0.444,-0.012C0.421,-0.004 0.396,-0 0.368,-0ZM0.357,-0.228C0.345,-0.23 0.331,-0.231 0.314,-0.231L0.208,-0.231L0.208,-0.098L0.314,-0.098C0.334,-0.098 0.35,-0.1 0.363,-0.104C0.375,-0.109 0.384,-0.114 0.391,-0.121C0.398,-0.127 0.402,-0.134 0.404,-0.142C0.406,-0.15 0.407,-0.157 0.407,-0.164C0.407,-0.177 0.406,-0.188 0.402,-0.197C0.399,-0.205 0.393,-0.212 0.386,-0.217C0.379,-0.222 0.369,-0.226 0.357,-0.228ZM0.378,-0.338C0.384,-0.342 0.388,-0.348 0.391,-0.355C0.393,-0.362 0.395,-0.37 0.395,-0.38C0.395,-0.388 0.393,-0.395 0.391,-0.402C0.388,-0.408 0.384,-0.414 0.378,-0.419C0.373,-0.423 0.365,-0.427 0.355,-0.43C0.345,-0.433 0.333,-0.434 0.318,-0.434L0.208,-0.434L0.208,-0.323L0.314,-0.323C0.33,-0.323 0.343,-0.324 0.354,-0.327C0.364,-0.329 0.372,-0.333 0.378,-0.338Z" style="fill:white;fill-rule:nonzero;"/>
            </g>
            <g transform="matrix(71.0066,0,0,90.3026,1581.7,1963.52)">
                <path d="M0.193,-0.005C0.159,-0.019 0.131,-0.038 0.107,-0.063C0.084,-0.089 0.066,-0.118 0.053,-0.153C0.04,-0.187 0.034,-0.225 0.034,-0.266C0.034,-0.307 0.04,-0.345 0.053,-0.379C0.066,-0.414 0.084,-0.444 0.107,-0.469C0.131,-0.493 0.159,-0.513 0.193,-0.527C0.226,-0.541 0.264,-0.548 0.306,-0.548C0.349,-0.548 0.387,-0.541 0.421,-0.527C0.454,-0.513 0.483,-0.493 0.506,-0.469C0.529,-0.444 0.547,-0.414 0.56,-0.379C0.572,-0.345 0.578,-0.307 0.578,-0.266C0.578,-0.225 0.572,-0.187 0.56,-0.153C0.547,-0.118 0.529,-0.089 0.506,-0.063C0.483,-0.038 0.454,-0.019 0.421,-0.005C0.387,0.009 0.349,0.016 0.306,0.016C0.264,0.016 0.226,0.009 0.193,-0.005ZM0.185,-0.207C0.189,-0.187 0.196,-0.169 0.207,-0.154C0.217,-0.138 0.23,-0.126 0.246,-0.116C0.262,-0.107 0.282,-0.102 0.306,-0.102C0.331,-0.102 0.351,-0.107 0.368,-0.116C0.384,-0.125 0.397,-0.137 0.407,-0.153C0.417,-0.168 0.424,-0.185 0.428,-0.205C0.432,-0.225 0.434,-0.245 0.434,-0.266C0.434,-0.287 0.432,-0.307 0.428,-0.327C0.424,-0.347 0.417,-0.365 0.407,-0.38C0.397,-0.395 0.384,-0.407 0.368,-0.416C0.351,-0.426 0.331,-0.43 0.306,-0.43C0.282,-0.43 0.262,-0.425 0.246,-0.416C0.23,-0.407 0.217,-0.394 0.207,-0.379C0.196,-0.363 0.189,-0.346 0.185,-0.326C0.18,-0.306 0.178,-0.286 0.178,-0.266C0.178,-0.246 0.181,-0.226 0.185,-0.207Z" style="fill:white;fill-rule:nonzero;"/>
            </g>
            <g transform="matrix(71.0066,0,0,90.3026,1625.14,1963.52)">
                <path d="M0.26,-0.526C0.273,-0.533 0.287,-0.539 0.302,-0.542C0.318,-0.546 0.335,-0.548 0.355,-0.548C0.371,-0.548 0.388,-0.546 0.405,-0.542C0.423,-0.538 0.439,-0.532 0.456,-0.523C0.472,-0.515 0.488,-0.503 0.502,-0.49C0.517,-0.476 0.53,-0.459 0.541,-0.438C0.552,-0.418 0.561,-0.395 0.567,-0.368C0.574,-0.341 0.577,-0.31 0.577,-0.276C0.577,-0.233 0.573,-0.194 0.563,-0.158C0.554,-0.122 0.54,-0.091 0.521,-0.065C0.503,-0.04 0.479,-0.02 0.45,-0.005C0.422,0.009 0.389,0.016 0.35,0.016C0.337,0.016 0.323,0.015 0.31,0.012C0.296,0.01 0.283,0.005 0.27,-0.001C0.257,-0.007 0.244,-0.016 0.233,-0.026C0.221,-0.037 0.211,-0.05 0.202,-0.066L0.2,-0.066L0.2,0.206L0.062,0.206L0.062,-0.532L0.194,-0.532L0.194,-0.456L0.196,-0.456C0.205,-0.472 0.215,-0.486 0.226,-0.497C0.236,-0.509 0.248,-0.518 0.26,-0.526ZM0.238,-0.131C0.247,-0.123 0.258,-0.115 0.27,-0.11C0.282,-0.105 0.297,-0.102 0.314,-0.102C0.331,-0.102 0.346,-0.105 0.358,-0.11C0.37,-0.115 0.381,-0.123 0.39,-0.131C0.398,-0.14 0.406,-0.15 0.411,-0.162C0.417,-0.173 0.422,-0.185 0.425,-0.197C0.428,-0.209 0.43,-0.221 0.431,-0.233C0.433,-0.245 0.433,-0.256 0.433,-0.266C0.433,-0.285 0.431,-0.303 0.427,-0.322C0.423,-0.341 0.416,-0.358 0.406,-0.373C0.397,-0.388 0.385,-0.4 0.37,-0.41C0.354,-0.419 0.336,-0.424 0.314,-0.424C0.292,-0.424 0.273,-0.419 0.258,-0.41C0.243,-0.4 0.231,-0.388 0.221,-0.373C0.212,-0.358 0.205,-0.341 0.201,-0.322C0.197,-0.303 0.195,-0.285 0.195,-0.266C0.195,-0.256 0.195,-0.245 0.197,-0.233C0.198,-0.221 0.2,-0.209 0.203,-0.197C0.206,-0.185 0.211,-0.173 0.217,-0.162C0.222,-0.15 0.229,-0.14 0.238,-0.131Z" style="fill:white;fill-rule:nonzero;"/>
            </g>
            <g transform="matrix(71.0066,0,0,90.3026,1668.52,1963.52)">
                <path d="M0.193,-0.005C0.159,-0.019 0.131,-0.038 0.107,-0.063C0.084,-0.089 0.066,-0.118 0.053,-0.153C0.04,-0.187 0.034,-0.225 0.034,-0.266C0.034,-0.307 0.04,-0.345 0.053,-0.379C0.066,-0.414 0.084,-0.444 0.107,-0.469C0.131,-0.493 0.159,-0.513 0.193,-0.527C0.226,-0.541 0.264,-0.548 0.306,-0.548C0.349,-0.548 0.387,-0.541 0.421,-0.527C0.454,-0.513 0.483,-0.493 0.506,-0.469C0.529,-0.444 0.547,-0.414 0.56,-0.379C0.572,-0.345 0.578,-0.307 0.578,-0.266C0.578,-0.225 0.572,-0.187 0.56,-0.153C0.547,-0.118 0.529,-0.089 0.506,-0.063C0.483,-0.038 0.454,-0.019 0.421,-0.005C0.387,0.009 0.349,0.016 0.306,0.016C0.264,0.016 0.226,0.009 0.193,-0.005ZM0.185,-0.207C0.189,-0.187 0.196,-0.169 0.207,-0.154C0.217,-0.138 0.23,-0.126 0.246,-0.116C0.262,-0.107 0.282,-0.102 0.306,-0.102C0.331,-0.102 0.351,-0.107 0.368,-0.116C0.384,-0.125 0.397,-0.137 0.407,-0.153C0.417,-0.168 0.424,-0.185 0.428,-0.205C0.432,-0.225 0.434,-0.245 0.434,-0.266C0.434,-0.287 0.432,-0.307 0.428,-0.327C0.424,-0.347 0.417,-0.365 0.407,-0.38C0.397,-0.395 0.384,-0.407 0.368,-0.416C0.351,-0.426 0.331,-0.43 0.306,-0.43C0.282,-0.43 0.262,-0.425 0.246,-0.416C0.23,-0.407 0.217,-0.394 0.207,-0.379C0.196,-0.363 0.189,-0.346 0.185,-0.326C0.18,-0.306 0.178,-0.286 0.178,-0.266C0.178,-0.246 0.181,-0.226 0.185,-0.207Z" style="fill:white;fill-rule:nonzero;"/>
            </g>
            <g transform="matrix(71.0066,0,0,90.3026,1711.96,1963.52)">
                <path d="M0.499,-0L0.15,-0L0.15,0.128L0.02,0.128L0.02,-0.112L0.075,-0.112C0.088,-0.136 0.099,-0.162 0.108,-0.189C0.116,-0.216 0.123,-0.243 0.128,-0.27C0.134,-0.297 0.137,-0.324 0.14,-0.35C0.142,-0.377 0.144,-0.401 0.145,-0.424C0.146,-0.447 0.146,-0.468 0.146,-0.487C0.146,-0.505 0.146,-0.521 0.146,-0.532L0.562,-0.532L0.562,-0.112L0.629,-0.112L0.629,0.128L0.499,0.128L0.499,-0ZM0.235,-0.165C0.229,-0.146 0.222,-0.128 0.214,-0.112L0.424,-0.112L0.424,-0.42L0.266,-0.42C0.266,-0.41 0.266,-0.398 0.266,-0.384C0.266,-0.369 0.265,-0.354 0.264,-0.336C0.263,-0.319 0.261,-0.3 0.259,-0.281C0.257,-0.261 0.254,-0.242 0.25,-0.222C0.246,-0.203 0.241,-0.183 0.235,-0.165Z" style="fill:white;fill-rule:nonzero;"/>
            </g>
            <g transform="matrix(71.0066,0,0,90.3026,1757.34,1963.52)">
                <path d="M0.183,0C0.151,-0.01 0.124,-0.027 0.101,-0.05C0.078,-0.073 0.059,-0.103 0.046,-0.139C0.033,-0.176 0.026,-0.22 0.026,-0.272C0.026,-0.308 0.031,-0.343 0.04,-0.376C0.05,-0.41 0.065,-0.439 0.085,-0.464C0.106,-0.49 0.132,-0.51 0.163,-0.525C0.195,-0.54 0.233,-0.548 0.278,-0.548C0.325,-0.548 0.365,-0.54 0.397,-0.525C0.429,-0.509 0.455,-0.487 0.475,-0.459C0.495,-0.431 0.509,-0.396 0.517,-0.356C0.526,-0.316 0.53,-0.272 0.53,-0.223L0.165,-0.223C0.165,-0.218 0.166,-0.212 0.167,-0.204C0.167,-0.195 0.169,-0.187 0.172,-0.177C0.175,-0.168 0.18,-0.158 0.185,-0.149C0.191,-0.139 0.198,-0.13 0.207,-0.123C0.217,-0.115 0.228,-0.108 0.241,-0.104C0.255,-0.099 0.271,-0.096 0.29,-0.096C0.3,-0.096 0.309,-0.098 0.319,-0.1C0.329,-0.103 0.338,-0.107 0.346,-0.113C0.354,-0.118 0.361,-0.124 0.367,-0.132C0.373,-0.14 0.377,-0.148 0.38,-0.158L0.523,-0.158C0.523,-0.148 0.521,-0.137 0.517,-0.125C0.512,-0.112 0.506,-0.1 0.497,-0.087C0.489,-0.074 0.478,-0.061 0.465,-0.049C0.452,-0.036 0.436,-0.025 0.418,-0.016C0.401,-0.006 0.38,0.001 0.358,0.007C0.335,0.013 0.31,0.016 0.282,0.016C0.247,0.016 0.214,0.011 0.183,0ZM0.207,-0.411C0.196,-0.402 0.187,-0.389 0.18,-0.374C0.173,-0.358 0.17,-0.338 0.17,-0.315L0.386,-0.315C0.386,-0.338 0.383,-0.358 0.376,-0.374C0.369,-0.389 0.36,-0.402 0.349,-0.411C0.339,-0.42 0.327,-0.427 0.314,-0.43C0.302,-0.434 0.29,-0.436 0.278,-0.436C0.266,-0.436 0.254,-0.434 0.242,-0.43C0.229,-0.427 0.217,-0.42 0.207,-0.411Z" style="fill:white;fill-rule:nonzero;"/>
            </g>
            <g transform="matrix(71.0066,0,0,90.3026,1796.83,1963.52)">
                <path d="M0.407,-0.228L0.204,-0.228L0.204,-0L0.066,-0L0.066,-0.532L0.204,-0.532L0.204,-0.34L0.407,-0.34L0.407,-0.532L0.545,-0.532L0.545,-0L0.407,-0L0.407,-0.228Z" style="fill:white;fill-rule:nonzero;"/>
            </g>
            <g transform="matrix(71.0066,0,0,90.3026,1840.21,1963.52)">
                <path d="M0.407,-0L0.407,-0.321L0.405,-0.321L0.217,-0L0.066,-0L0.066,-0.532L0.204,-0.532L0.204,-0.204L0.206,-0.204L0.4,-0.532L0.545,-0.532L0.545,-0L0.407,-0Z" style="fill:white;fill-rule:nonzero;"/>
            </g>
            <g transform="matrix(71.0066,0,0,90.3026,1897.78,1963.52)">
                <path d="M0.6,-0L0.42,-0L0.264,-0.225L0.208,-0.168L0.208,-0L0.07,-0L0.07,-0.532L0.208,-0.532L0.208,-0.33L0.407,-0.532L0.591,-0.532L0.371,-0.311L0.6,-0Z" style="fill:white;fill-rule:nonzero;"/>
            </g>
            <g transform="matrix(71.0066,0,0,90.3026,1941.16,1963.52)">
                <path d="M0.193,-0.005C0.159,-0.019 0.131,-0.038 0.107,-0.063C0.084,-0.089 0.066,-0.118 0.053,-0.153C0.04,-0.187 0.034,-0.225 0.034,-0.266C0.034,-0.307 0.04,-0.345 0.053,-0.379C0.066,-0.414 0.084,-0.444 0.107,-0.469C0.131,-0.493 0.159,-0.513 0.193,-0.527C0.226,-0.541 0.264,-0.548 0.306,-0.548C0.349,-0.548 0.387,-0.541 0.421,-0.527C0.454,-0.513 0.483,-0.493 0.506,-0.469C0.529,-0.444 0.547,-0.414 0.56,-0.379C0.572,-0.345 0.578,-0.307 0.578,-0.266C0.578,-0.225 0.572,-0.187 0.56,-0.153C0.547,-0.118 0.529,-0.089 0.506,-0.063C0.483,-0.038 0.454,-0.019 0.421,-0.005C0.387,0.009 0.349,0.016 0.306,0.016C0.264,0.016 0.226,0.009 0.193,-0.005ZM0.185,-0.207C0.189,-0.187 0.196,-0.169 0.207,-0.154C0.217,-0.138 0.23,-0.126 0.246,-0.116C0.262,-0.107 0.282,-0.102 0.306,-0.102C0.331,-0.102 0.351,-0.107 0.368,-0.116C0.384,-0.125 0.397,-0.137 0.407,-0.153C0.417,-0.168 0.424,-0.185 0.428,-0.205C0.432,-0.225 0.434,-0.245 0.434,-0.266C0.434,-0.287 0.432,-0.307 0.428,-0.327C0.424,-0.347 0.417,-0.365 0.407,-0.38C0.397,-0.395 0.384,-0.407 0.368,-0.416C0.351,-0.426 0.331,-0.43 0.306,-0.43C0.282,-0.43 0.262,-0.425 0.246,-0.416C0.23,-0.407 0.217,-0.394 0.207,-0.379C0.196,-0.363 0.189,-0.346 0.185,-0.326C0.18,-0.306 0.178,-0.286 0.178,-0.266C0.178,-0.246 0.181,-0.226 0.185,-0.207Z" style="fill:white;fill-rule:nonzero;"/>
            </g>
            <g transform="matrix(71.0066,0,0,90.3026,1984.6,1963.52)">
                <path d="M0.48,-0.532L0.48,-0.42L0.319,-0.42L0.319,-0L0.181,-0L0.181,-0.42L0.02,-0.42L0.02,-0.532L0.48,-0.532Z" style="fill:white;fill-rule:nonzero;"/>
            </g>
            <g transform="matrix(71.0066,0,0,90.3026,2020.1,1963.52)">
                <path d="M0.183,0C0.151,-0.01 0.124,-0.027 0.101,-0.05C0.078,-0.073 0.059,-0.103 0.046,-0.139C0.033,-0.176 0.026,-0.22 0.026,-0.272C0.026,-0.308 0.031,-0.343 0.04,-0.376C0.05,-0.41 0.065,-0.439 0.085,-0.464C0.106,-0.49 0.132,-0.51 0.163,-0.525C0.195,-0.54 0.233,-0.548 0.278,-0.548C0.325,-0.548 0.365,-0.54 0.397,-0.525C0.429,-0.509 0.455,-0.487 0.475,-0.459C0.495,-0.431 0.509,-0.396 0.517,-0.356C0.526,-0.316 0.53,-0.272 0.53,-0.223L0.165,-0.223C0.165,-0.218 0.166,-0.212 0.167,-0.204C0.167,-0.195 0.169,-0.187 0.172,-0.177C0.175,-0.168 0.18,-0.158 0.185,-0.149C0.191,-0.139 0.198,-0.13 0.207,-0.123C0.217,-0.115 0.228,-0.108 0.241,-0.104C0.255,-0.099 0.271,-0.096 0.29,-0.096C0.3,-0.096 0.309,-0.098 0.319,-0.1C0.329,-0.103 0.338,-0.107 0.346,-0.113C0.354,-0.118 0.361,-0.124 0.367,-0.132C0.373,-0.14 0.377,-0.148 0.38,-0.158L0.523,-0.158C0.523,-0.148 0.521,-0.137 0.517,-0.125C0.512,-0.112 0.506,-0.1 0.497,-0.087C0.489,-0.074 0.478,-0.061 0.465,-0.049C0.452,-0.036 0.436,-0.025 0.418,-0.016C0.401,-0.006 0.38,0.001 0.358,0.007C0.335,0.013 0.31,0.016 0.282,0.016C0.247,0.016 0.214,0.011 0.183,0ZM0.207,-0.411C0.196,-0.402 0.187,-0.389 0.18,-0.374C0.173,-0.358 0.17,-0.338 0.17,-0.315L0.386,-0.315C0.386,-0.338 0.383,-0.358 0.376,-0.374C0.369,-0.389 0.36,-0.402 0.349,-0.411C0.339,-0.42 0.327,-0.427 0.314,-0.43C0.302,-0.434 0.29,-0.436 0.278,-0.436C0.266,-0.436 0.254,-0.434 0.242,-0.43C0.229,-0.427 0.217,-0.42 0.207,-0.411Z" style="fill:white;fill-rule:nonzero;"/>
            </g>
            <g transform="matrix(71.0066,0,0,90.3026,2059.59,1963.52)">
                <path d="M0.407,-0.228L0.204,-0.228L0.204,-0L0.066,-0L0.066,-0.532L0.204,-0.532L0.204,-0.34L0.407,-0.34L0.407,-0.532L0.545,-0.532L0.545,-0L0.407,-0L0.407,-0.228Z" style="fill:white;fill-rule:nonzero;"/>
            </g>
            <g transform="matrix(71.0066,0,0,90.3026,2102.97,1963.52)">
                <path d="M0.545,-0.112L0.61,-0.112L0.61,0.128L0.482,0.128L0.482,-0L0.066,-0L0.066,-0.532L0.204,-0.532L0.204,-0.112L0.407,-0.112L0.407,-0.532L0.545,-0.532L0.545,-0.112Z" style="fill:white;fill-rule:nonzero;"/>
            </g>
            <g transform="matrix(71.0066,0,0,90.3026,2146.34,1963.52)">
                <path d="M0.309,-0.332C0.314,-0.333 0.319,-0.334 0.325,-0.335C0.331,-0.336 0.336,-0.338 0.341,-0.342C0.346,-0.345 0.35,-0.349 0.353,-0.354C0.356,-0.36 0.358,-0.367 0.358,-0.376C0.358,-0.385 0.357,-0.393 0.354,-0.4C0.351,-0.407 0.346,-0.414 0.34,-0.419C0.333,-0.425 0.325,-0.429 0.314,-0.432C0.303,-0.435 0.289,-0.436 0.273,-0.436C0.254,-0.436 0.24,-0.434 0.228,-0.43C0.217,-0.427 0.208,-0.421 0.202,-0.415C0.195,-0.408 0.19,-0.4 0.188,-0.391C0.185,-0.382 0.182,-0.373 0.181,-0.363L0.043,-0.363C0.043,-0.369 0.044,-0.378 0.046,-0.39C0.048,-0.401 0.052,-0.414 0.058,-0.428C0.064,-0.441 0.072,-0.455 0.082,-0.469C0.092,-0.483 0.106,-0.496 0.122,-0.508C0.139,-0.519 0.16,-0.529 0.184,-0.536C0.208,-0.544 0.236,-0.548 0.27,-0.548C0.318,-0.548 0.356,-0.543 0.385,-0.533C0.415,-0.524 0.438,-0.511 0.454,-0.496C0.471,-0.48 0.482,-0.463 0.488,-0.444C0.493,-0.425 0.496,-0.406 0.496,-0.387L0.496,-0.105C0.496,-0.089 0.497,-0.076 0.499,-0.066C0.501,-0.055 0.503,-0.047 0.506,-0.041C0.509,-0.035 0.512,-0.031 0.516,-0.028C0.52,-0.025 0.524,-0.023 0.528,-0.022L0.528,-0L0.375,-0C0.372,-0.006 0.37,-0.014 0.366,-0.025C0.363,-0.035 0.362,-0.047 0.362,-0.062C0.351,-0.051 0.341,-0.041 0.33,-0.031C0.32,-0.022 0.309,-0.014 0.296,-0.007C0.283,0 0.269,0.006 0.252,0.01C0.235,0.014 0.215,0.016 0.192,0.016C0.168,0.016 0.146,0.013 0.126,0.006C0.106,-0.001 0.089,-0.012 0.074,-0.025C0.06,-0.039 0.048,-0.056 0.04,-0.077C0.032,-0.097 0.028,-0.121 0.028,-0.148C0.028,-0.17 0.031,-0.19 0.038,-0.209C0.045,-0.227 0.055,-0.244 0.067,-0.258C0.08,-0.272 0.095,-0.284 0.113,-0.293C0.131,-0.302 0.151,-0.309 0.174,-0.312L0.309,-0.332ZM0.208,-0.086C0.217,-0.083 0.226,-0.082 0.236,-0.082C0.241,-0.082 0.248,-0.083 0.256,-0.084C0.264,-0.085 0.273,-0.087 0.282,-0.09C0.291,-0.094 0.3,-0.098 0.309,-0.104C0.318,-0.109 0.326,-0.117 0.333,-0.126C0.341,-0.135 0.347,-0.146 0.351,-0.159C0.356,-0.173 0.358,-0.188 0.358,-0.206L0.358,-0.26C0.349,-0.255 0.341,-0.251 0.333,-0.247C0.324,-0.244 0.313,-0.24 0.299,-0.238L0.262,-0.231C0.246,-0.228 0.232,-0.225 0.22,-0.221C0.208,-0.217 0.198,-0.212 0.19,-0.205C0.182,-0.199 0.176,-0.191 0.172,-0.182C0.168,-0.173 0.166,-0.162 0.166,-0.148C0.166,-0.137 0.168,-0.127 0.171,-0.118C0.175,-0.11 0.18,-0.103 0.186,-0.098C0.193,-0.093 0.2,-0.089 0.208,-0.086Z" style="fill:white;fill-rule:nonzero;"/>
            </g>
            <g transform="matrix(71.0066,0,0,90.3026,2200.03,1963.52)">
                <path d="M0.066,-0.532L0.545,-0.532L0.545,-0L0.407,-0L0.407,-0.42L0.204,-0.42L0.204,-0L0.066,-0L0.066,-0.532Z" style="fill:white;fill-rule:nonzero;"/>
            </g>
            <g transform="matrix(71.0066,0,0,90.3026,2243.41,1963.52)">
                <path d="M0.193,-0.005C0.159,-0.019 0.131,-0.038 0.107,-0.063C0.084,-0.089 0.066,-0.118 0.053,-0.153C0.04,-0.187 0.034,-0.225 0.034,-0.266C0.034,-0.307 0.04,-0.345 0.053,-0.379C0.066,-0.414 0.084,-0.444 0.107,-0.469C0.131,-0.493 0.159,-0.513 0.193,-0.527C0.226,-0.541 0.264,-0.548 0.306,-0.548C0.349,-0.548 0.387,-0.541 0.421,-0.527C0.454,-0.513 0.483,-0.493 0.506,-0.469C0.529,-0.444 0.547,-0.414 0.56,-0.379C0.572,-0.345 0.578,-0.307 0.578,-0.266C0.578,-0.225 0.572,-0.187 0.56,-0.153C0.547,-0.118 0.529,-0.089 0.506,-0.063C0.483,-0.038 0.454,-0.019 0.421,-0.005C0.387,0.009 0.349,0.016 0.306,0.016C0.264,0.016 0.226,0.009 0.193,-0.005ZM0.185,-0.207C0.189,-0.187 0.196,-0.169 0.207,-0.154C0.217,-0.138 0.23,-0.126 0.246,-0.116C0.262,-0.107 0.282,-0.102 0.306,-0.102C0.331,-0.102 0.351,-0.107 0.368,-0.116C0.384,-0.125 0.397,-0.137 0.407,-0.153C0.417,-0.168 0.424,-0.185 0.428,-0.205C0.432,-0.225 0.434,-0.245 0.434,-0.266C0.434,-0.287 0.432,-0.307 0.428,-0.327C0.424,-0.347 0.417,-0.365 0.407,-0.38C0.397,-0.395 0.384,-0.407 0.368,-0.416C0.351,-0.426 0.331,-0.43 0.306,-0.43C0.282,-0.43 0.262,-0.425 0.246,-0.416C0.23,-0.407 0.217,-0.394 0.207,-0.379C0.196,-0.363 0.189,-0.346 0.185,-0.326C0.18,-0.306 0.178,-0.286 0.178,-0.266C0.178,-0.246 0.181,-0.226 0.185,-0.207Z" style="fill:white;fill-rule:nonzero;"/>
            </g>
            <g transform="matrix(71.0066,0,0,90.3026,2301.05,1963.52)">
                <path d="M0.285,-0.14L0.394,-0.532L0.542,-0.532L0.359,-0.009C0.348,0.022 0.339,0.048 0.331,0.071C0.322,0.094 0.314,0.113 0.305,0.13C0.297,0.146 0.288,0.16 0.279,0.17C0.27,0.181 0.259,0.189 0.247,0.195C0.234,0.201 0.22,0.206 0.203,0.208C0.187,0.211 0.167,0.212 0.144,0.212C0.135,0.212 0.126,0.212 0.118,0.211C0.11,0.211 0.101,0.21 0.09,0.209L0.09,0.097C0.095,0.098 0.102,0.098 0.11,0.099C0.118,0.1 0.125,0.1 0.131,0.1C0.146,0.1 0.158,0.097 0.168,0.092C0.178,0.086 0.186,0.08 0.192,0.072C0.198,0.064 0.202,0.056 0.205,0.048C0.208,0.04 0.209,0.033 0.209,0.028L0.014,-0.532L0.169,-0.532L0.283,-0.14L0.285,-0.14Z" style="fill:white;fill-rule:nonzero;"/>
            </g>
            <g transform="matrix(71.0066,0,0,90.3026,2340.54,1963.52)">
                <path d="M0.272,-0.42L0.27,-0.321C0.268,-0.265 0.264,-0.216 0.259,-0.174C0.253,-0.132 0.244,-0.097 0.232,-0.069C0.219,-0.041 0.202,-0.02 0.181,-0.005C0.16,0.009 0.132,0.016 0.099,0.016C0.083,0.016 0.07,0.015 0.058,0.013C0.046,0.012 0.037,0.009 0.029,0.006L0.029,-0.11C0.034,-0.108 0.04,-0.106 0.047,-0.104C0.054,-0.103 0.062,-0.102 0.072,-0.102C0.083,-0.102 0.092,-0.105 0.1,-0.112C0.108,-0.118 0.115,-0.129 0.121,-0.146C0.127,-0.163 0.132,-0.186 0.135,-0.216C0.138,-0.245 0.14,-0.284 0.141,-0.331L0.145,-0.532L0.573,-0.532L0.573,-0L0.436,-0L0.436,-0.42L0.272,-0.42Z" style="fill:white;fill-rule:nonzero;"/>
            </g>
            <g transform="matrix(71.0066,0,0,90.3026,2386.86,1963.52)">
                <path d="M0.407,-0L0.407,-0.321L0.405,-0.321L0.217,-0L0.066,-0L0.066,-0.532L0.204,-0.532L0.204,-0.204L0.206,-0.204L0.4,-0.532L0.545,-0.532L0.545,-0L0.407,-0Z" style="fill:white;fill-rule:nonzero;"/>
            </g>
            <g transform="matrix(71.0066,0,0,90.3026,2430.23,1963.52)">
                <path d="M0.545,-0.112L0.61,-0.112L0.61,0.128L0.482,0.128L0.482,-0L0.066,-0L0.066,-0.532L0.204,-0.532L0.204,-0.112L0.407,-0.112L0.407,-0.532L0.545,-0.532L0.545,-0.112Z" style="fill:white;fill-rule:nonzero;"/>
            </g>
            <g transform="matrix(71.0066,0,0,90.3026,2473.61,1963.52)">
                <path d="M0.407,-0L0.407,-0.321L0.405,-0.321L0.217,-0L0.066,-0L0.066,-0.532L0.204,-0.532L0.204,-0.204L0.206,-0.204L0.4,-0.532L0.545,-0.532L0.545,-0L0.407,-0Z" style="fill:white;fill-rule:nonzero;"/>
            </g>
            <g transform="matrix(71.0066,0,0,90.3026,2516.98,1963.52)">
                <path d="M0.48,-0.532L0.48,-0.42L0.319,-0.42L0.319,-0L0.181,-0L0.181,-0.42L0.02,-0.42L0.02,-0.532L0.48,-0.532Z" style="fill:white;fill-rule:nonzero;"/>
            </g>
            <g transform="matrix(71.0066,0,0,90.3026,2552.49,1963.52)">
                <path d="M0.183,0C0.151,-0.01 0.124,-0.027 0.101,-0.05C0.078,-0.073 0.059,-0.103 0.046,-0.139C0.033,-0.176 0.026,-0.22 0.026,-0.272C0.026,-0.308 0.031,-0.343 0.04,-0.376C0.05,-0.41 0.065,-0.439 0.085,-0.464C0.106,-0.49 0.132,-0.51 0.163,-0.525C0.195,-0.54 0.233,-0.548 0.278,-0.548C0.325,-0.548 0.365,-0.54 0.397,-0.525C0.429,-0.509 0.455,-0.487 0.475,-0.459C0.495,-0.431 0.509,-0.396 0.517,-0.356C0.526,-0.316 0.53,-0.272 0.53,-0.223L0.165,-0.223C0.165,-0.218 0.166,-0.212 0.167,-0.204C0.167,-0.195 0.169,-0.187 0.172,-0.177C0.175,-0.168 0.18,-0.158 0.185,-0.149C0.191,-0.139 0.198,-0.13 0.207,-0.123C0.217,-0.115 0.228,-0.108 0.241,-0.104C0.255,-0.099 0.271,-0.096 0.29,-0.096C0.3,-0.096 0.309,-0.098 0.319,-0.1C0.329,-0.103 0.338,-0.107 0.346,-0.113C0.354,-0.118 0.361,-0.124 0.367,-0.132C0.373,-0.14 0.377,-0.148 0.38,-0.158L0.523,-0.158C0.523,-0.148 0.521,-0.137 0.517,-0.125C0.512,-0.112 0.506,-0.1 0.497,-0.087C0.489,-0.074 0.478,-0.061 0.465,-0.049C0.452,-0.036 0.436,-0.025 0.418,-0.016C0.401,-0.006 0.38,0.001 0.358,0.007C0.335,0.013 0.31,0.016 0.282,0.016C0.247,0.016 0.214,0.011 0.183,0ZM0.207,-0.411C0.196,-0.402 0.187,-0.389 0.18,-0.374C0.173,-0.358 0.17,-0.338 0.17,-0.315L0.386,-0.315C0.386,-0.338 0.383,-0.358 0.376,-0.374C0.369,-0.389 0.36,-0.402 0.349,-0.411C0.339,-0.42 0.327,-0.427 0.314,-0.43C0.302,-0.434 0.29,-0.436 0.278,-0.436C0.266,-0.436 0.254,-0.434 0.242,-0.43C0.229,-0.427 0.217,-0.42 0.207,-0.411Z" style="fill:white;fill-rule:nonzero;"/>
            </g>
            <g transform="matrix(71.0066,0,0,90.3026,2591.98,1963.52)">
                <path d="M0.087,-0.241L0.087,-0.708L0.242,-0.708L0.242,-0.241L0.087,-0.241ZM0.249,-0.081C0.249,-0.056 0.241,-0.034 0.226,-0.017C0.21,0 0.189,0.009 0.164,0.009C0.139,0.009 0.119,0 0.104,-0.017C0.088,-0.034 0.08,-0.056 0.08,-0.081C0.08,-0.106 0.088,-0.127 0.104,-0.145C0.119,-0.163 0.139,-0.172 0.164,-0.172C0.189,-0.172 0.21,-0.163 0.226,-0.145C0.241,-0.127 0.249,-0.106 0.249,-0.081Z" style="fill:white;fill-rule:nonzero;"/>
            </g>
        </g>
        <g transform="matrix(0.929982,0,0,0.929982,543.715,1390.54)">
            <g transform="matrix(1,0,0,1,-1650,-1275)">
                <g transform="matrix(4.16667,0,0,4.16667,706.767,1015.85)">
                    <g id="Layer-11" serif:id="Layer 1">
                        <path d="M0.037,80.238C280.559,-3.281 530.918,-3.145 532.513,1.723C534.104,6.591 280.522,12.344 0,95.863" style="fill:white;fill-rule:nonzero;"/>
                    </g>
                </g>
            </g>
        </g>
    </g>
</svg>
